<?xml version="1.0" encoding="utf-8"?>
<!-- Generator: Adobe Illustrator 22.1.0, SVG Export Plug-In . SVG Version: 6.00 Build 0)  -->
<svg version="1.1" id="Calque_1" xmlns="http://www.w3.org/2000/svg" xmlns:xlink="http://www.w3.org/1999/xlink" x="0px" y="0px"
	 viewBox="0 0 416.8 389.6" style="enable-background:new 0 0 416.8 389.6;" xml:space="preserve">
<style type="text/css">
	.region{fill:#999999;}
	.st1{fill:none;stroke:#FFFFFF;stroke-width:1.5674;stroke-miterlimit:10;}
	.st2{fill:#009A8A;}
	.st3{fill:none;stroke:#FFFFFF;stroke-width:2.4425;stroke-miterlimit:10;}
	.st4{fill:#004C5F;}
	.st5{font-family:'Montserrat';}
	.st6{font-size:8px;}
	.st7{letter-spacing:2;}
</style>
<a href="/group/{{ data['FR-BRE'].id }}">
<path class="region bretagne color-{{ data['FR-BRE'].progress_srb }}" d="M51.2,132.9l1.2,1.4l-0.5,0.8l-1.6-0.5l-2-1l2-0.3l-0.3-0.8L51.2,132.9z M98.4,107.1v-2.9l-0.7-0.5l0.1-3.8
	l-1.2-0.6l-1.6,0l-1.4-1.2l-1.5,1.8l-1.2,0.1l-1,1.4l-0.9-0.2l-2.2-1.9L86,96.9l-0.4-1.8h-6.7l-2.2-1.3l1.7-2.3l-3.7-0.1L73.4,93v0
	l-0.7,0.8L70,93.5L69.8,95l-1.2,0.1l-0.1-1.8l-1.6-0.5l-0.7,0.8V91l-1.9,1.4L61.8,92L61,93.7l-5,2.7v1.3h-0.7v-2.3L52.6,94l0.3-2.4
	l-2.5-1.9v-2.3L48.4,87l0.1-2.2l-1.4-0.1l0.1-1.5h-3l-0.3,0.9l-0.7-1.6l-1.4,1.1L38.8,84l-0.6,0.8l-2.1-1.6L33,85.4l1.1,1.5
	l-1.7,2.3l-2.2-1.3l-4,0.1v2.7h-0.7l-0.3-1.2l-1.6,0.3l-0.3-3.3l-1.7,1.8l-1.5-0.6l-3.1,0.3l-0.5,1.3l-1.4,0.3l-0.3-1.5l-3.4,0.5
	v0.9l-1.9,0.1l-1-0.7l-1.3,0.6l-0.3,1.5l-3.5,0.1l-2.1,2.5l1.6,1.2L1,96.6l0.7,1.3L1.2,101l2.4,0.3l0.7-0.7l0.3,0.4l5.2-0.7l1.1-0.7
	l-0.9,0.9l0.3,1.7l2.5-1.1l-0.5,1.7l3,0.1l-0.1,0.4l-3-0.1l-2.5-0.6l-3.2-1.5l-2.2,2.5l2.5,0.9l-0.1,3.9l1-0.8l1.4-2.2l2.6,1.5
	l1.3,0.3l0.5,1.9l-0.7,1.3l-1.6-0.1l-1.6,0L7,110.5l-4.6,0.3l-1.1,1.5l1.6,0.9l1.5-0.1l1.2,1.1l1.7-0.1l2.7,3.1l0.6,3.3l-1,2.1
	l3.1,0.6l3.2-0.2l0.8-1.4l-0.8-1.1l0.5,0.2l1.2-0.1l2.1,1.2l1.6-0.3v-0.7l0.1,0.6l1.8,3l4,0.3l0.1-0.5l0.7,1l2.4,0.4H32l0,0l1.6,2.5
	l2.4,0.6l0.2-0.3l-0.1,0.4l2,0.9l2.4,2.3l0.7,1.4l-0.5,3.5l1.9,1.4l1-1.2l-0.9-1.1v-2.1l1.5,0.4l0.4-1.3l0.2,0.4l2,1.7l1-1.6
	l-0.1-0.3l0.5,0.6l0.1,0l-1.3,1.6l1.8,0.6l1.2,1.9l7.3-0.7l1.4,0.3l-0.7,0.6l0.1,1.4l0.4,0.3l0.7-0.1l1.1-1.1l0.7,0.8h2.2l2.6-1.3
	l3.9-1.5l0.1-3.8l0.9-0.5l2.5-1.3l8.3-0.4l0.6-1.6l1.3-1.2l3-0.4l0.1-1.4l1.7,0.2l1.2,1.6l2.9,0.7l0.6-1.3l0.7-2.4l1.7-4.2l0.8-0.5
	l2.4,0.3v-3.9l-0.9-0.9v-3.8l-0.4-1.4v-2L98.4,107.1z "/>
</a>
<path class="st1" d="M51.2,132.9l1.2,1.4l-0.5,0.8l-1.6-0.5l-2-1l2-0.3l-0.3-0.8L51.2,132.9z M98.4,107.1v-2.9l-0.7-0.5l0.1-3.8
	l-1.2-0.6l-1.6,0l-1.4-1.2l-1.5,1.8l-1.2,0.1l-1,1.4l-0.9-0.2l-2.2-1.9L86,96.9l-0.4-1.8h-6.7l-2.2-1.3l1.7-2.3l-3.7-0.1L73.4,93v0
	l-0.7,0.8L70,93.5L69.8,95l-1.2,0.1l-0.1-1.8l-1.6-0.5l-0.7,0.8V91l-1.9,1.4L61.8,92L61,93.7l-5,2.7v1.3h-0.7v-2.3L52.6,94l0.3-2.4
	l-2.5-1.9v-2.3L48.4,87l0.1-2.2l-1.4-0.1l0.1-1.5h-3l-0.3,0.9l-0.7-1.6l-1.4,1.1L38.8,84l-0.6,0.8l-2.1-1.6L33,85.4l1.1,1.5
	l-1.7,2.3l-2.2-1.3l-4,0.1v2.7h-0.7l-0.3-1.2l-1.6,0.3l-0.3-3.3l-1.7,1.8l-1.5-0.6l-3.1,0.3l-0.5,1.3l-1.4,0.3l-0.3-1.5l-3.4,0.5
	v0.9l-1.9,0.1l-1-0.7l-1.3,0.6l-0.3,1.5l-3.5,0.1l-2.1,2.5l1.6,1.2L1,96.6l0.7,1.3L1.2,101l2.4,0.3l0.7-0.7l0.3,0.4l5.2-0.7l1.1-0.7
	l-0.9,0.9l0.3,1.7l2.5-1.1l-0.5,1.7l3,0.1l-0.1,0.4l-3-0.1l-2.5-0.6l-3.2-1.5l-2.2,2.5l2.5,0.9l-0.1,3.9l1-0.8l1.4-2.2l2.6,1.5
	l1.3,0.3l0.5,1.9l-0.7,1.3l-1.6-0.1l-1.6,0L7,110.5l-4.6,0.3l-1.1,1.5l1.6,0.9l1.5-0.1l1.2,1.1l1.7-0.1l2.7,3.1l0.6,3.3l-1,2.1
	l3.1,0.6l3.2-0.2l0.8-1.4l-0.8-1.1l0.5,0.2l1.2-0.1l2.1,1.2l1.6-0.3v-0.7l0.1,0.6l1.8,3l4,0.3l0.1-0.5l0.7,1l2.4,0.4H32l0,0l1.6,2.5
	l2.4,0.6l0.2-0.3l-0.1,0.4l2,0.9l2.4,2.3l0.7,1.4l-0.5,3.5l1.9,1.4l1-1.2l-0.9-1.1v-2.1l1.5,0.4l0.4-1.3l0.2,0.4l2,1.7l1-1.6
	l-0.1-0.3l0.5,0.6l0.1,0l-1.3,1.6l1.8,0.6l1.2,1.9l7.3-0.7l1.4,0.3l-0.7,0.6l0.1,1.4l0.4,0.3l0.7-0.1l1.1-1.1l0.7,0.8h2.2l2.6-1.3
	l3.9-1.5l0.1-3.8l0.9-0.5l2.5-1.3l8.3-0.4l0.6-1.6l1.3-1.2l3-0.4l0.1-1.4l1.7,0.2l1.2,1.6l2.9,0.7l0.6-1.3l0.7-2.4l1.7-4.2l0.8-0.5
	l2.4,0.3v-3.9l-0.9-0.9v-3.8l-0.4-1.4v-2L98.4,107.1z"/>

<a href="/group/{{ data['FR-PDL'].id }}">
<polygon class="region loire color-{{ data['FR-PDL'].progress_srb }}" points="126.4,105.8 124.6,105.6 124.4,105.6 123.7,103.3 122,102.6 121.5,99.7 120.2,98.5 118.6,98.7
	118.1,100 116.2,100.8 112.6,100.3 109,102.4 107.7,101.4 105.7,102.8 104.4,101.8 103.4,100.2 101.3,99.3 99.9,100.4 97.5,100.1 
	97.4,103.9 98,104.5 98,106.9 96.7,108.3 96.7,110.5 97.1,111.9 97.1,115.8 98,116.7 98,120 95.9,119.8 94.9,120.4 93.1,124.8 
	92.4,127.1 92.2,127.6 92,128.1 91.8,128 89.5,127.5 88.3,125.8 86,125.5 85.9,127 83.1,127.4 81.7,128.8 81.1,130.2 73,130.6 
	69.4,132.6 69.2,136.3 65.6,137.7 63.1,139 61.1,139 60.2,138 58.9,139.3 57.9,139.5 58.8,140.1 56.3,142.4 57,143 57.4,144 
	56,145.9 57.7,146.8 60.5,147.4 60.7,146.6 62,148.2 64.6,148.2 66.3,146.3 67.6,146.3 65.9,147.2 66,148.7 66.5,149.8 65.2,151.1 
	63.4,151.1 63.8,153.6 66.8,153 70.1,156 70,156.1 69.9,156.3 69.9,156.3 66,161.3 65.9,164.7 70,168.7 69.8,170 71.1,170 
	73.6,177.6 76.3,178.9 79,181.6 82.1,181.6 83.3,184.3 86.2,184.3 87.5,186.3 90.8,187.9 90.9,186.1 91.5,186.7 95.6,184.1 
	97.3,184 98.1,186.2 100.7,185.1 102.9,186.7 104.7,185.9 106.2,185.4 106.9,184.6 108.9,183.3 107.3,181.6 106.4,182.3 
	106.3,181.7 107.3,179.9 106.3,178.3 107.1,177.3 106.7,173.5 105.4,171.5 106.4,170.3 104.2,167.8 105,166.1 101.8,163.4 
	101.8,161.8 100.6,160.1 100.9,159.9 100.9,159.9 103.1,159 107.2,159.9 109.2,158.6 109.2,156.8 112.7,156.6 116,155.9 
	119.4,155.8 119.8,156.6 121,157.6 122,155.8 124.5,153.2 125.5,153.2 127.1,147.6 129.2,145.1 129.1,142.1 130.4,140.4 
	130.4,139.5 129.8,138.7 130.2,137.9 131,136.3 133.5,138.1 135.3,138.1 134.6,135.7 135.9,136.6 136.9,135.1 140.9,134 
	140.2,132.3 141,131.3 143,130.5 145,128 145,125.6 146.3,125.6 146.8,123.5 147,120.6 145.7,119.4 146.7,117.7 148.4,115.5 
	146.4,114.1 144.6,113.8 142.7,111 141.9,111 141.9,111.4 139.2,111.4 137.8,109.4 135.6,108.6 135,103.9 133.8,102.3 130,102.4 "/>
</a>

<polygon class="st1" points="126.4,105.8 124.6,105.6 124.4,105.6 123.7,103.3 122,102.6 121.5,99.7 120.2,98.5 118.6,98.7 
	118.1,100 116.2,100.8 112.6,100.3 109,102.4 107.7,101.4 105.7,102.8 104.4,101.8 103.4,100.2 101.3,99.3 99.9,100.4 97.5,100.1 
	97.4,103.9 98,104.5 98,106.9 96.7,108.3 96.7,110.5 97.1,111.9 97.1,115.8 98,116.7 98,120 95.9,119.8 94.9,120.4 93.1,124.8 
	92.4,127.1 92.2,127.6 92,128.1 91.8,128 89.5,127.5 88.3,125.8 86,125.5 85.9,127 83.1,127.4 81.7,128.8 81.1,130.2 73,130.6 
	69.4,132.6 69.2,136.3 65.6,137.7 63.1,139 61.1,139 60.2,138 58.9,139.3 57.9,139.5 58.8,140.1 56.3,142.4 57,143 57.4,144 
	56,145.9 57.7,146.8 60.5,147.4 60.7,146.6 62,148.2 64.6,148.2 66.3,146.3 67.6,146.3 65.9,147.2 66,148.7 66.5,149.8 65.2,151.1 
	63.4,151.1 63.8,153.6 66.8,153 70.1,156 70,156.1 69.9,156.3 69.9,156.3 66,161.3 65.9,164.7 70,168.7 69.8,170 71.1,170 
	73.6,177.6 76.3,178.9 79,181.6 82.1,181.6 83.3,184.3 86.2,184.3 87.5,186.3 90.8,187.9 90.9,186.1 91.5,186.7 95.6,184.1 
	97.3,184 98.1,186.2 100.7,185.1 102.9,186.7 104.7,185.9 106.2,185.4 106.9,184.6 108.9,183.3 107.3,181.6 106.4,182.3 
	106.3,181.7 107.3,179.9 106.3,178.3 107.1,177.3 106.7,173.5 105.4,171.5 106.4,170.3 104.2,167.8 105,166.1 101.8,163.4 
	101.8,161.8 100.6,160.1 100.9,159.9 100.9,159.9 103.1,159 107.2,159.9 109.2,158.6 109.2,156.8 112.7,156.6 116,155.9 
	119.4,155.8 119.8,156.6 121,157.6 122,155.8 124.5,153.2 125.5,153.2 127.1,147.6 129.2,145.1 129.1,142.1 130.4,140.4 
	130.4,139.5 129.8,138.7 130.2,137.9 131,136.3 133.5,138.1 135.3,138.1 134.6,135.7 135.9,136.6 136.9,135.1 140.9,134 
	140.2,132.3 141,131.3 143,130.5 145,128 145,125.6 146.3,125.6 146.8,123.5 147,120.6 145.7,119.4 146.7,117.7 148.4,115.5 
	146.4,114.1 144.6,113.8 142.7,111 141.9,111 141.9,111.4 139.2,111.4 137.8,109.4 135.6,108.6 135,103.9 133.8,102.3 130,102.4 "/>

<a href="/group/{{ data['FR-PAC'].id }}">
<polygon class="region paca color-{{ data['FR-PAC'].progress_srb }}" points="314.6,257.2 313.2,256 311.8,255.6 311.2,254 311.7,252.9 314.2,250.3 313.8,248.5 314,248.2
	314,248.2 314,248.2 314.4,247.8 314.4,247.8 315.2,246.9 316.8,247 316.8,245.5 314.9,244.5 314.5,240.6 312.9,240 311.1,240.3 
	307.7,238.6 307.2,234.6 305.2,233.9 304.5,232.7 303.6,230.6 300.9,230.5 299.5,231.1 299.3,233.1 297.2,233.3 296.8,231.5 
	295.9,230.6 293.4,230.9 292.3,231.8 291.8,234.8 292.3,235.6 295,235.9 295.5,237.5 296.6,238.1 296.6,240.7 294.1,240.5 
	293.1,241.7 290.1,241.2 288.4,242.6 287.1,242.1 285.2,243.6 285.9,244.9 285,245.8 281.5,245.8 281.5,247.7 282.5,248.2 
	282.2,248.9 280.1,249.8 277.2,250 276.3,252.8 276.2,254.5 277.6,255.6 276.3,257.1 274.6,256.2 272.2,256 271.9,257.5 
	273.1,258.4 271.6,259.4 272.2,261.9 276.8,263.1 277.6,264.9 278.8,265.1 278.4,269.2 278.4,269.4 277.9,268.8 276.6,267.7 
	275.8,269.9 274.7,270.9 274.4,270.9 274.4,270.9 274.2,270.8 274,270.8 274,270.8 273.1,270.8 271.2,269.4 270.7,267.6 
	266.8,267.3 264.2,267 263.9,265.6 264.8,263.7 264.5,263.4 262.8,264.9 260.4,264.6 260,263.9 261.8,261.3 259.8,259.4 
	257.7,259.5 256.2,262 256.6,264.6 258.8,264.8 258.5,265.5 256.8,265.7 254.9,267.6 254.6,267.2 255,264.5 254.1,263.4 250.2,264 
	249.4,265.7 249.9,265.9 252.1,269.6 252.1,272.7 256.1,276.6 256.1,278.1 254.3,279.2 254.3,279.2 250.8,281.1 249.9,288.2 
	246,287.7 244.7,291 245.6,292.2 241.4,294.8 240.1,297.9 244.6,298.1 250.1,298.5 250.8,299.1 249.2,299.1 247.6,301.8 253.7,303 
	258.7,302.2 256.1,299.8 257.4,298.7 259.8,299.6 261,302.2 268.8,302.4 270.6,301.6 270.9,302.5 268.5,304.6 271.7,304.7 
	271.2,305.8 270.2,307 277.1,307 280.2,308.1 280.5,308.4 280.9,309 283.2,310 283.9,312.8 285.6,313.1 287,312.1 289.3,310.6 
	293.2,311 293.1,311.8 291.9,312.4 291.9,312.8 295.7,313 294.6,311.8 294.3,310.3 295.8,309.2 297.8,309.8 298.5,310.1 299.3,311 
	300.4,310.2 300.7,308.4 301.6,307.6 304.5,307.6 305.2,306.4 307,306.9 309.4,305.9 309.4,302.1 307.1,302.2 308.6,301.3 
	309.7,299.7 310,297.7 313.8,297.1 315.9,294.8 315.9,294.8 316,294.7 316.1,294.5 316.1,294.5 316.2,294.5 316.3,291.6 
	318.8,292.1 319.8,290.9 321.2,291.2 321.4,287 324.3,286.7 327,284.3 329.5,284.3 329.6,282.7 332.1,281.3 330.7,278.1 
	332.7,276.4 332.3,274.5 335.2,273.6 336,270.5 335.6,268.4 334.9,267.2 334.4,265.3 332.2,265.5 325.9,267.7 324,267.7 320.6,265 
	317.1,264 315.2,264 315.2,261.7 312.4,259.9 312.4,257.5 "/>
</a>

<polygon class="st1" points="314.6,257.2 313.2,256 311.8,255.6 311.2,254 311.7,252.9 314.2,250.3 313.8,248.5 314,248.2 
	314,248.2 314,248.2 314.4,247.8 314.4,247.8 315.2,246.9 316.8,247 316.8,245.5 314.9,244.5 314.5,240.6 312.9,240 311.1,240.3 
	307.7,238.6 307.2,234.6 305.2,233.9 304.5,232.7 303.6,230.6 300.9,230.5 299.5,231.1 299.3,233.1 297.2,233.3 296.8,231.5 
	295.9,230.6 293.4,230.9 292.3,231.8 291.8,234.8 292.3,235.6 295,235.9 295.5,237.5 296.6,238.1 296.6,240.7 294.1,240.5 
	293.1,241.7 290.1,241.2 288.4,242.6 287.1,242.1 285.2,243.6 285.9,244.9 285,245.8 281.5,245.8 281.5,247.7 282.5,248.2 
	282.2,248.9 280.1,249.8 277.2,250 276.3,252.8 276.2,254.5 277.6,255.6 276.3,257.1 274.6,256.2 272.2,256 271.9,257.5 
	273.1,258.4 271.6,259.4 272.2,261.9 276.8,263.1 277.6,264.9 278.8,265.1 278.4,269.2 278.4,269.4 277.9,268.8 276.6,267.7 
	275.8,269.9 274.7,270.9 274.4,270.9 274.4,270.9 274.2,270.8 274,270.8 274,270.8 273.1,270.8 271.2,269.4 270.7,267.6 
	266.8,267.3 264.2,267 263.9,265.6 264.8,263.7 264.5,263.4 262.8,264.9 260.4,264.6 260,263.9 261.8,261.3 259.8,259.4 
	257.7,259.5 256.2,262 256.6,264.6 258.8,264.8 258.5,265.5 256.8,265.7 254.9,267.6 254.6,267.2 255,264.5 254.1,263.4 250.2,264 
	249.4,265.7 249.9,265.9 252.1,269.6 252.1,272.7 256.1,276.6 256.1,278.1 254.3,279.2 254.3,279.2 250.8,281.1 249.9,288.2 
	246,287.7 244.7,291 245.6,292.2 241.4,294.8 240.1,297.9 244.6,298.1 250.1,298.5 250.8,299.1 249.2,299.1 247.6,301.8 253.7,303 
	258.7,302.2 256.1,299.8 257.4,298.7 259.8,299.6 261,302.2 268.8,302.4 270.6,301.6 270.9,302.5 268.5,304.6 271.7,304.7 
	271.2,305.8 270.2,307 277.1,307 280.2,308.1 280.5,308.4 280.9,309 283.2,310 283.9,312.8 285.6,313.1 287,312.1 289.3,310.6 
	293.2,311 293.1,311.8 291.9,312.4 291.9,312.8 295.7,313 294.6,311.8 294.3,310.3 295.8,309.2 297.8,309.8 298.5,310.1 299.3,311 
	300.4,310.2 300.7,308.4 301.6,307.6 304.5,307.6 305.2,306.4 307,306.9 309.4,305.9 309.4,302.1 307.1,302.2 308.6,301.3 
	309.7,299.7 310,297.7 313.8,297.1 315.9,294.8 315.9,294.8 316,294.7 316.1,294.5 316.1,294.5 316.2,294.5 316.3,291.6 
	318.8,292.1 319.8,290.9 321.2,291.2 321.4,287 324.3,286.7 327,284.3 329.5,284.3 329.6,282.7 332.1,281.3 330.7,278.1 
	332.7,276.4 332.3,274.5 335.2,273.6 336,270.5 335.6,268.4 334.9,267.2 334.4,265.3 332.2,265.5 325.9,267.7 324,267.7 320.6,265 
	317.1,264 315.2,264 315.2,261.7 312.4,259.9 312.4,257.5 "/>

<a href="/group/{{ data['FR-COR'].id }}">
<path class="region corse color-{{ data['FR-COR'].progress_srb }}" d="M336.9,352.2L336.9,352.2l-0.1-0.1l-1.3-2.5l-0.4-8l-1-1.5l0,0l-1.7-1.3l-0.3-4.8l0.8-2.3L332,328l-0.7-2.9
	l-0.6-0.9l-1.4-0.8l-2.2,1.5l0.3,1.5l1,1.3l-1.2,0.9l0.3,0.6l0.3,0.5l-0.8,0.9v1.4l0,0l1.3,1.2v1.7l-0.8,1.6l-0.7,0.3l-0.4-0.5
	l-0.6-0.9l-1.9,0.2l-0.4-0.3h-1.7l-1.6,1.4l-0.5,2.2l-3.4,0.6l-2.7,2.3l-0.5,1.4l-1.1-0.1l-0.9-1.1l0,0l-0.4,2.6l-0.9,0.4l-0.3,2.3
	l0.4,0.8l-1.4,1l-0.4,1h-1.1v1.8l1.4,1l2.2,1.3l0.1,0.8l-1.2,0.4l-2.3,0.4v1.2l0.8,0.8l0.2,2.7l3.1,1l1,0.2l0.8,1.3l-0.5,0.8
	l-1.1,0.4l-0.8,1.5l-0.9,1l0.4,2.7l2.1-0.1l0.6,0.4l1.9-0.9l0.3,0.3l-0.9,2l0.9,0.9l-1.5,1.1l-1.2,2.7l3.2,0.7l3.7,0.3l-1.4,1.6
	c-0.3-0.1-0.9-0.2-1.2-0.1c0,0,0,0-0.1,0.1c0,0,0,0-0.1,0.1c0,0,0,0-0.1,0.1l0,0.1l0,0c0,0,0,0,0,0l0,0c0,0,0,0,0,0.1l0,0.1
	c0,0.5-0.6,1.8-0.9,2.2l-0.1,0.1l1.4,1.6l2.5,1.5l4.6,1.2l1.3,0.5l1,0.4l-0.9,1.6l2.4-0.1l0.4,0.9h2.4l0.6-2.9l-1.2-0.2l1.8-1.9
	l-0.7-0.8l0.1-1l2.4-1.3l0.2-1.8l-1.9-0.2l-0.8,0.7v-0.7l2.1-0.1l0.7-1.7l0.5-4.7l0,0l-0.4-2l0-1.8l0,0l-0.1-4l3.2-4.5L336.9,352.2
	L336.9,352.2L336.9,352.2L336.9,352.2L336.9,352.2z"/>
</a>

<path class="st1" d="M336.9,352.2L336.9,352.2l-0.1-0.1l-1.3-2.5l-0.4-8l-1-1.5l0,0l-1.7-1.3l-0.3-4.8l0.8-2.3L332,328l-0.7-2.9
	l-0.6-0.9l-1.4-0.8l-2.2,1.5l0.3,1.5l1,1.3l-1.2,0.9l0.3,0.6l0.3,0.5l-0.8,0.9v1.4l0,0l1.3,1.2v1.7l-0.8,1.6l-0.7,0.3l-0.4-0.5
	l-0.6-0.9l-1.9,0.2l-0.4-0.3h-1.7l-1.6,1.4l-0.5,2.2l-3.4,0.6l-2.7,2.3l-0.5,1.4l-1.1-0.1l-0.9-1.1l0,0l-0.4,2.6l-0.9,0.4l-0.3,2.3
	l0.4,0.8l-1.4,1l-0.4,1h-1.1v1.8l1.4,1l2.2,1.3l0.1,0.8l-1.2,0.4l-2.3,0.4v1.2l0.8,0.8l0.2,2.7l3.1,1l1,0.2l0.8,1.3l-0.5,0.8
	l-1.1,0.4l-0.8,1.5l-0.9,1l0.4,2.7l2.1-0.1l0.6,0.4l1.9-0.9l0.3,0.3l-0.9,2l0.9,0.9l-1.5,1.1l-1.2,2.7l3.2,0.7l3.7,0.3l-1.4,1.6
	c-0.3-0.1-0.9-0.2-1.2-0.1c0,0,0,0-0.1,0.1c0,0,0,0-0.1,0.1c0,0,0,0-0.1,0.1l0,0.1l0,0c0,0,0,0,0,0l0,0c0,0,0,0,0,0.1l0,0.1
	c0,0.5-0.6,1.8-0.9,2.2l-0.1,0.1l1.4,1.6l2.5,1.5l4.6,1.2l1.3,0.5l1,0.4l-0.9,1.6l2.4-0.1l0.4,0.9h2.4l0.6-2.9l-1.2-0.2l1.8-1.9
	l-0.7-0.8l0.1-1l2.4-1.3l0.2-1.8l-1.9-0.2l-0.8,0.7v-0.7l2.1-0.1l0.7-1.7l0.5-4.7l0,0l-0.4-2l0-1.8l0,0l-0.1-4l3.2-4.5L336.9,352.2
	L336.9,352.2L336.9,352.2L336.9,352.2L336.9,352.2z"/>

<a href="/group/{{ data['FR-NOR'].id }}">
<polygon class="region normandie color-{{ data['FR-NOR'].progress_srb }}" points="171.8,52.9 170.4,50.4 170,48 164.1,42.2 163.4,40.8 161.9,40.9 160.6,40.4 159.7,41.5 154,45.9
	143.9,48.5 137.2,50.9 131.7,53.8 128.4,58.7 127.7,62.6 130.5,64.7 133.4,65.3 130.7,65.8 125.6,68.8 120,71 115.5,68.5 
	104.5,66.9 102,65.5 98.2,66.5 98.2,66.5 96.9,66.8 96.8,63.8 93.4,59.7 94.3,57.3 96,57.3 94.5,53.3 88.5,53 85.5,55.1 82.2,52.9 
	77,51.3 76.3,53 79.2,55.3 79.2,58.1 78.1,59.5 78.9,60.3 79.2,60.5 78.9,63 79.9,65.2 83,68.7 83.6,71.7 84.3,72.7 84.3,77.4 
	85.9,80.7 85.9,84.3 84.1,87.8 86,92.8 89,93.5 89.2,94.5 87.9,95.1 85.2,95.1 85.6,97.1 86.4,99.7 88.8,101.7 90.1,102 91.2,100.6 
	92.3,100.4 93.7,98.8 95,99.8 96.6,99.8 97.5,100.2 97.5,100.5 100,100.8 101.3,99.8 103.1,100.5 103.2,100.5 103.3,100.8 
	103.3,100.8 104,102.1 105.7,103.3 107.7,101.9 109,102.9 112.7,100.7 116.3,101.2 118.4,100.4 118.9,99.1 120,99 121.1,99.9 
	121.6,102.9 123.4,103.6 124.1,106 126.6,106.2 130.2,102.8 133.6,102.7 134.6,104 135.2,108.9 137.6,109.8 138.9,111.8 
	141.7,111.8 141.8,112.5 142.2,112.5 142.3,111.4 142.5,111.4 144.4,114.2 146.2,114.5 146.2,111 145.2,109.7 145,108.9 
	146.8,107.8 148.9,107.3 150.3,105.6 150,100.5 147.2,98.1 147.1,95.8 146.8,95.6 148.4,94 150.2,94 155.1,91.5 156.5,92.1 
	160.1,92.1 161,91.1 161,89.1 163.6,87.8 163.6,85.6 164.4,85 164.3,84.4 165.2,83.5 163.8,83.2 163.8,82.2 163.1,81.2 163.5,80.7 
	167.3,79.7 168.3,78 169.1,75 170.1,73.8 170.3,72.5 171.3,73 172.6,72.7 171.8,71.4 171.4,68.3 170.2,67.3 170.5,66.2 171.5,64.5 
	172.2,63.2 170.7,63.2 170.7,61.1 169.9,59.8 170.4,57.2 171.1,55.6 170,55.6 170.4,54.6 "/>
</a>

<polygon class="st1" points="171.8,52.9 170.4,50.4 170,48 164.1,42.2 163.4,40.8 161.9,40.9 160.6,40.4 159.7,41.5 154,45.9 
	143.9,48.5 137.2,50.9 131.7,53.8 128.4,58.7 127.7,62.6 130.5,64.7 133.4,65.3 130.7,65.8 125.6,68.8 120,71 115.5,68.5 
	104.5,66.9 102,65.5 98.2,66.5 98.2,66.5 96.9,66.8 96.8,63.8 93.4,59.7 94.3,57.3 96,57.3 94.5,53.3 88.5,53 85.5,55.1 82.2,52.9 
	77,51.3 76.3,53 79.2,55.3 79.2,58.1 78.1,59.5 78.9,60.3 79.2,60.5 78.9,63 79.9,65.2 83,68.7 83.6,71.7 84.3,72.7 84.3,77.4 
	85.9,80.7 85.9,84.3 84.1,87.8 86,92.8 89,93.5 89.2,94.5 87.9,95.1 85.2,95.1 85.6,97.1 86.4,99.7 88.8,101.7 90.1,102 91.2,100.6 
	92.3,100.4 93.7,98.8 95,99.8 96.6,99.8 97.5,100.2 97.5,100.5 100,100.8 101.3,99.8 103.1,100.5 103.2,100.5 103.3,100.8 
	103.3,100.8 104,102.1 105.7,103.3 107.7,101.9 109,102.9 112.7,100.7 116.3,101.2 118.4,100.4 118.9,99.1 120,99 121.1,99.9 
	121.6,102.9 123.4,103.6 124.1,106 126.6,106.2 130.2,102.8 133.6,102.7 134.6,104 135.2,108.9 137.6,109.8 138.9,111.8 
	141.7,111.8 141.8,112.5 142.2,112.5 142.3,111.4 142.5,111.4 144.4,114.2 146.2,114.5 146.2,111 145.2,109.7 145,108.9 
	146.8,107.8 148.9,107.3 150.3,105.6 150,100.5 147.2,98.1 147.1,95.8 146.8,95.6 148.4,94 150.2,94 155.1,91.5 156.5,92.1 
	160.1,92.1 161,91.1 161,89.1 163.6,87.8 163.6,85.6 164.4,85 164.3,84.4 165.2,83.5 163.8,83.2 163.8,82.2 163.1,81.2 163.5,80.7 
	167.3,79.7 168.3,78 169.1,75 170.1,73.8 170.3,72.5 171.3,73 172.6,72.7 171.8,71.4 171.4,68.3 170.2,67.3 170.5,66.2 171.5,64.5 
	172.2,63.2 170.7,63.2 170.7,61.1 169.9,59.8 170.4,57.2 171.1,55.6 170,55.6 170.4,54.6 "/>

<a href="/group/{{ data['FR-HDF'].id }}">
<polygon class="region hautsdefrance color-{{ data['FR-HDF'].progress_srb }}" points="233,33.9 232.4,32.6 228,29.2 220.4,29.6 219.6,30.9 219,30.9 219.1,26.4 216.8,23.7 215.2,24
	214.3,22.9 211.6,24.1 210.7,23.2 208.9,22.9 208.4,21.3 208.3,15.9 207.1,15.3 206.9,14.5 206.1,14.5 205.8,12.9 203.9,13 
	200.5,14.1 198.9,16.1 197.5,16.1 196.5,14.9 196.1,13.4 194.7,11.8 192.9,11.8 192.2,10.5 192.2,8.3 193.1,6.8 192.5,4.7 190.7,1 
	186.3,3.1 179.6,4.2 179.4,4.2 179.4,4.2 179.4,4.2 179,4.3 179,4.3 171.9,5.7 165.9,10.3 165.9,28.4 165.8,29.2 165.8,29.2 
	165.5,33.5 168.4,36.2 168.4,37.1 165,35 160.3,40.7 161.8,41.3 163.2,41.2 163.8,42.4 169.6,48.2 170,50.5 171.3,52.9 171,53.3 
	170.1,54.4 169.4,56 170.5,56 170,57.1 169.5,59.9 170.3,61.2 170.3,63.7 171.5,63.7 170.2,66.1 169.7,67.4 171,68.5 171.4,71.5 
	171.9,72.4 171.3,72.6 169.9,71.8 169.6,74.4 169.9,74 170.3,74.9 171.2,76.3 174.9,76.6 177.5,76.3 179.2,75.1 181.2,76.3 
	182.3,77.2 184.1,76.7 185.4,76.1 188.1,77.5 191,79.3 192.1,80.3 193.7,79.2 194.9,79.9 195.8,80.6 197.1,80.5 197.9,79.5 
	199.7,80.5 202,79.6 203.3,80 204.7,78.9 205.4,78.5 205.5,78.6 205.5,78.6 205.7,78.7 205.8,78.8 205.8,78.8 206.7,79.5 
	207.1,82.4 210.8,85.9 211.9,86.3 212.6,88 215.1,88.5 215.5,88 216.1,86.6 218.1,85.7 219.2,82.8 220.5,81.9 219.7,80.7 218,80.7 
	217.8,80.2 218.9,79.7 219.6,78.6 218.4,77.8 218.6,76.9 221.9,76.6 221.2,75.1 219.4,73.9 219.4,70.5 221.8,68.7 224.8,68.7 
	224.5,67.3 225.8,66.7 228.1,68.2 229.2,67.9 229.1,63.2 229.5,61.6 230.1,59.6 228.4,58.7 228.7,57.9 231.2,57.3 231.2,55.6 
	233.2,54.5 233.8,52.7 233.1,51.6 233.2,49.8 234.5,48.7 233.3,46.3 233.6,43.8 231.4,43.8 231.4,43.8 230.7,43.8 230.6,42.7 
	233.2,41.1 232.8,38.3 230.5,37.7 230.9,37.2 230.9,35.4 "/>
</a>

<polygon class="st1" points="233,33.9 232.4,32.6 228,29.2 220.4,29.6 219.6,30.9 219,30.9 219.1,26.4 216.8,23.7 215.2,24 
	214.3,22.9 211.6,24.1 210.7,23.2 208.9,22.9 208.4,21.3 208.3,15.9 207.1,15.3 206.9,14.5 206.1,14.5 205.8,12.9 203.9,13 
	200.5,14.1 198.9,16.1 197.5,16.1 196.5,14.9 196.1,13.4 194.7,11.8 192.9,11.8 192.2,10.5 192.2,8.3 193.1,6.8 192.5,4.7 190.7,1 
	186.3,3.1 179.6,4.2 179.4,4.2 179.4,4.2 179.4,4.2 179,4.3 179,4.3 171.9,5.7 165.9,10.3 165.9,28.4 165.8,29.2 165.8,29.2 
	165.5,33.5 168.4,36.2 168.4,37.1 165,35 160.3,40.7 161.8,41.3 163.2,41.2 163.8,42.4 169.6,48.2 170,50.5 171.3,52.9 171,53.3 
	170.1,54.4 169.4,56 170.5,56 170,57.1 169.5,59.9 170.3,61.2 170.3,63.7 171.5,63.7 170.2,66.1 169.7,67.4 171,68.5 171.4,71.5 
	171.9,72.4 171.3,72.6 169.9,71.8 169.6,74.4 169.9,74 170.3,74.9 171.2,76.3 174.9,76.6 177.5,76.3 179.2,75.1 181.2,76.3 
	182.3,77.2 184.1,76.7 185.4,76.1 188.1,77.5 191,79.3 192.1,80.3 193.7,79.2 194.9,79.9 195.8,80.6 197.1,80.5 197.9,79.5 
	199.7,80.5 202,79.6 203.3,80 204.7,78.9 205.4,78.5 205.5,78.6 205.5,78.6 205.7,78.7 205.8,78.8 205.8,78.8 206.7,79.5 
	207.1,82.4 210.8,85.9 211.9,86.3 212.6,88 215.1,88.5 215.5,88 216.1,86.6 218.1,85.7 219.2,82.8 220.5,81.9 219.7,80.7 218,80.7 
	217.8,80.2 218.9,79.7 219.6,78.6 218.4,77.8 218.6,76.9 221.9,76.6 221.2,75.1 219.4,73.9 219.4,70.5 221.8,68.7 224.8,68.7 
	224.5,67.3 225.8,66.7 228.1,68.2 229.2,67.9 229.1,63.2 229.5,61.6 230.1,59.6 228.4,58.7 228.7,57.9 231.2,57.3 231.2,55.6 
	233.2,54.5 233.8,52.7 233.1,51.6 233.2,49.8 234.5,48.7 233.3,46.3 233.6,43.8 231.4,43.8 231.4,43.8 230.7,43.8 230.6,42.7 
	233.2,41.1 232.8,38.3 230.5,37.7 230.9,37.2 230.9,35.4 "/>

<a href="/group/{{ data['FR-GES'].id }}">
<path class="region grandest color-{{ data['FR-GES'].progress_srb }}" d="M336.8,78.8l-2.2-1.8l-3.4-0.4l-3-1.5l-2,1.2l-1-1.1h-1.5l-2.1,0.6l0,0l-0.5,0.1l-0.1,0l0,0l0,0l-0.8-1.2
	l-2.7-1.6l-1-1.5l-3.4,0.3l-1.9,1.7l-4.4,0.1l-1.2-0.9c-0.2-0.3-0.8-1.4-1.4-1.7c0,0-0.1,0-0.1-0.1c0,0-0.1,0-0.1,0l-0.1,0v0.2
	l-0.1-0.2c-0.5,0-1.4-0.5-1.9-0.8l-0.1-0.1l-2.1,0.9l-0.1,1.6l-2,0.2l-1.3-2.5l-0.7-0.3v-1.9l-1.9-0.8l-0.1-3.2l-1.4-1.4l-2.9-1.4
	l-1.5,0l-0.4,0.3h-1.2l-1.9-1.6l-2.2,0.1l-1.7,1.4l-0.4,0.6h-2.1l-0.8-0.8h-0.2v0h-1.9l-2.4-2.7h-3.2l-1.6,1.5l-2.3,0.1l-0.8,0.8
	h-0.3v0h-0.3l-0.5-2.4l-1.2-1.2l-0.5-0.1l0,0l-1.1-0.2l-0.5-2.6l-1.2-0.9l-3.7-0.4l-0.6-1.7l-1.3-0.8l-4.2-0.5l-0.2-2.8l0.5-0.5
	v-1.4l-2.1-1.3l0.4-1.3l0.6-1.5l-0.9-0.8l1.4-1.2V37l-0.7-0.5h-2.2l-1.4,2.1l-1.3,1.3v2.8l-1.5,1l-2.9,0.9l-1.5,0.6l-1.8-1.4h-2.8
	l-0.4,2.6l1.2,2.2l-1.1,1l-0.1,2.2l0.6,1l-0.5,1.4l-2,1.1V57l-2.5,0.5l-0.5,1.3l1.8,0.9l-0.5,1.7l-0.4,1.6l0.1,3.6h0l0,0.9l-0.7,0.2
	l-2.3-1.5l-1.9,0.8l0.3,1.2h-2.6l-2.7,2v3.8l1.9,1.2l0.4,0.9l-2.9,0.2l-0.5,1.5l1.2,0.8l-0.4,0.6l-1.3,0.6l0.3,1.2h1.8l0.5,0.7
	l-1.1,0.7l-1.1,2.8l-2,0.9l-0.7,1.5l-0.7,0.9l0.1,0.7l-1,0.7l-0.3,2.1l1.1,0.7l0.5,1.9l-0.7,1.2l0.5,1.2l1.9-0.1v0.3l0,0v0.4
	l-1.8,0.8l-0.1,1.7l-0.9,1.2l-0.6,2.8l-0.3,2.4l1,0.8h1.6l3.3,3.5l-0.4,3.6l2.6,2l1.3-0.9l2,2.4l0.3,2.4l1.5,2l0.7,1.6l5.5,0.3
	l2.5-1.3l0.7,1.4l1.2,0.2l0.7-1.5l4.3-0.1l1.9-1l0.3-1.7h3.6l0.9,0.5l0,0l1.2,0.6l2.4,2.5l3,4l-1.8,1.9l1.3,0.9l0.1,2.4l2.2-0.1
	l0.5,1.1l1.8,0.1l1.1-0.6l2,2.5l0.3,0.8l3.2-0.7l0.5-1.3l0.2,0v-1.5l1.7-0.7l2.1,0.8l2-0.8h1.3l0.4-2.8l0.9-1l-1.4-0.2l-0.1-1.3
	l1.8-0.4l0.1-1h1.9V124l1.5-0.6l-0.4-1.1l0.4-0.2l1-0.6l-0.5-0.8l0.3-0.2l0.9,1.1l1.6-1.1l0.4-1.3l2.3-0.4l0.5,0.4l-0.1,1.5l1.9,1.4
	l1.2-0.1l1.2-0.9h2.6l2,2.3h0.8l1.2-0.7l0.1-0.8l0.9-0.4l1.1,0.7l1.2,1.3l4.2,2.3l0,0l0.6,1.1l2.2,0.1l2.3,1.8l0.3,0.8l-0.1,1.5
	l-0.7,1.2l0.3,1.9l1.9-0.3l0.4,1.3l0.7,3l1.5-0.2l-0.2,1.3l1.1,0.9l5.1-0.1l2.7-2.1l0.1-3l1.4-1.8l-1.8-2.1l-0.9-2l1-1.4v-3.4
	l0.6-1.6l0-2.7l1.2-1.8l-1.4-1.9l-0.1-3.5l0,0l0-0.3l0-0.1l0,0l0-0.2l3.5-6.8l0-0.1l-0.4-3.9l1.6-5.2l0.4-4.5l3.5-2.5v-1.6l1.2-1.6
	h1.1l1.3-1.3l-0.3-2.3l1.1-3.1L336.8,78.8z"/>
</a>

<path class="st1" d="M336.8,78.8l-2.2-1.8l-3.4-0.4l-3-1.5l-2,1.2l-1-1.1h-1.5l-2.1,0.6l0,0l-0.5,0.1l-0.1,0l0,0l0,0l-0.8-1.2
	l-2.7-1.6l-1-1.5l-3.4,0.3l-1.9,1.7l-4.4,0.1l-1.2-0.9c-0.2-0.3-0.8-1.4-1.4-1.7c0,0-0.1,0-0.1-0.1c0,0-0.1,0-0.1,0l-0.1,0v0.2
	l-0.1-0.2c-0.5,0-1.4-0.5-1.9-0.8l-0.1-0.1l-2.1,0.9l-0.1,1.6l-2,0.2l-1.3-2.5l-0.7-0.3v-1.9l-1.9-0.8l-0.1-3.2l-1.4-1.4l-2.9-1.4
	l-1.5,0l-0.4,0.3h-1.2l-1.9-1.6l-2.2,0.1l-1.7,1.4l-0.4,0.6h-2.1l-0.8-0.8h-0.2v0h-1.9l-2.4-2.7h-3.2l-1.6,1.5l-2.3,0.1l-0.8,0.8
	h-0.3v0h-0.3l-0.5-2.4l-1.2-1.2l-0.5-0.1l0,0l-1.1-0.2l-0.5-2.6l-1.2-0.9l-3.7-0.4l-0.6-1.7l-1.3-0.8l-4.2-0.5l-0.2-2.8l0.5-0.5
	v-1.4l-2.1-1.3l0.4-1.3l0.6-1.5l-0.9-0.8l1.4-1.2V37l-0.7-0.5h-2.2l-1.4,2.1l-1.3,1.3v2.8l-1.5,1l-2.9,0.9l-1.5,0.6l-1.8-1.4h-2.8
	l-0.4,2.6l1.2,2.2l-1.1,1l-0.1,2.2l0.6,1l-0.5,1.4l-2,1.1V57l-2.5,0.5l-0.5,1.3l1.8,0.9l-0.5,1.7l-0.4,1.6l0.1,3.6h0l0,0.9l-0.7,0.2
	l-2.3-1.5l-1.9,0.8l0.3,1.2h-2.6l-2.7,2v3.8l1.9,1.2l0.4,0.9l-2.9,0.2l-0.5,1.5l1.2,0.8l-0.4,0.6l-1.3,0.6l0.3,1.2h1.8l0.5,0.7
	l-1.1,0.7l-1.1,2.8l-2,0.9l-0.7,1.5l-0.7,0.9l0.1,0.7l-1,0.7l-0.3,2.1l1.1,0.7l0.5,1.9l-0.7,1.2l0.5,1.2l1.9-0.1v0.3l0,0v0.4
	l-1.8,0.8l-0.1,1.7l-0.9,1.2l-0.6,2.8l-0.3,2.4l1,0.8h1.6l3.3,3.5l-0.4,3.6l2.6,2l1.3-0.9l2,2.4l0.3,2.4l1.5,2l0.7,1.6l5.5,0.3
	l2.5-1.3l0.7,1.4l1.2,0.2l0.7-1.5l4.3-0.1l1.9-1l0.3-1.7h3.6l0.9,0.5l0,0l1.2,0.6l2.4,2.5l3,4l-1.8,1.9l1.3,0.9l0.1,2.4l2.2-0.1
	l0.5,1.1l1.8,0.1l1.1-0.6l2,2.5l0.3,0.8l3.2-0.7l0.5-1.3l0.2,0v-1.5l1.7-0.7l2.1,0.8l2-0.8h1.3l0.4-2.8l0.9-1l-1.4-0.2l-0.1-1.3
	l1.8-0.4l0.1-1h1.9V124l1.5-0.6l-0.4-1.1l0.4-0.2l1-0.6l-0.5-0.8l0.3-0.2l0.9,1.1l1.6-1.1l0.4-1.3l2.3-0.4l0.5,0.4l-0.1,1.5l1.9,1.4
	l1.2-0.1l1.2-0.9h2.6l2,2.3h0.8l1.2-0.7l0.1-0.8l0.9-0.4l1.1,0.7l1.2,1.3l4.2,2.3l0,0l0.6,1.1l2.2,0.1l2.3,1.8l0.3,0.8l-0.1,1.5
	l-0.7,1.2l0.3,1.9l1.9-0.3l0.4,1.3l0.7,3l1.5-0.2l-0.2,1.3l1.1,0.9l5.1-0.1l2.7-2.1l0.1-3l1.4-1.8l-1.8-2.1l-0.9-2l1-1.4v-3.4
	l0.6-1.6l0-2.7l1.2-1.8l-1.4-1.9l-0.1-3.5l0,0l0-0.3l0-0.1l0,0l0-0.2l3.5-6.8l0-0.1l-0.4-3.9l1.6-5.2l0.4-4.5l3.5-2.5v-1.6l1.2-1.6
	h1.1l1.3-1.3l-0.3-2.3l1.1-3.1L336.8,78.8z"/>

<a href="/group/{{ data['FR-OCC'].id }}">
<polygon class="region occitanie color-{{ data['FR-OCC'].progress_srb }}" points="232,259.2 231.4,258.9 231.8,256.1 229.5,253.6 228.6,248.7 225.1,244.2 222.6,244.8 222.1,243
	220.5,243 220.2,244.6 217,245.6 214.6,239.4 210.6,240.9 209.6,243.1 207.2,241.5 205.2,247.6 203.5,251.7 202.5,250.6 
	202.1,246.7 200.8,246.7 200.2,242.9 197.6,243.2 197.3,241 196.7,240.1 192.7,243.6 192.7,246.7 191.8,246.7 191.4,249.8 
	190.5,250.1 189.8,251.8 185.9,251.8 185.5,251.2 183.4,251.2 182.2,253.1 182,253.1 181.1,252.9 181.9,250.7 180.2,250 181.9,246 
	179.5,244.3 178.8,239.3 176.4,238.7 175,240.1 174.3,238.8 171.9,241.2 170.6,241.4 168,237.6 164.4,236.1 161.6,237.4 
	160.9,237.5 161,237.8 160.2,238.5 160.2,240.2 161.3,241.4 160.2,243.4 159.1,244.1 159,245.4 156.7,245.6 156.8,247.4 
	157.5,247.7 155.8,250 152.8,250.3 152.7,252.4 151.5,253.6 150.9,255.3 148.1,255.4 149.2,259.7 150.4,262.2 150.5,262.4 
	147.9,262.9 145.7,261.6 144.7,265 146.1,266.6 145.5,269 144.7,270 145.2,271.5 142.9,272 140.6,272.6 141.2,274.4 140.5,274.6 
	140.5,274.6 140.1,274.7 140,274.8 140,274.8 139.4,275.3 137.5,273.4 133.3,273.8 132.2,275.7 129.9,276 127.8,276.3 126.8,274.9 
	124.6,277.1 123,275.7 121.9,278 122,279.6 120.8,279.9 120.3,279.1 119.5,276.9 117.5,278.6 116.3,278.1 114.6,278.4 113.2,280.2 
	114.8,282.8 113.7,283.9 114.1,286.1 112.9,287.8 111.9,290.5 113,292.6 116.3,292.8 116.6,292.8 118.8,296.3 117.3,297.7 
	120,301.7 118.7,303.4 116.6,308.1 112.9,311.3 113.8,313.1 113.2,313.5 111.1,313.1 110.6,317.6 109.5,318.5 109.2,321.7 
	109.8,321.4 112,322.6 114.6,324.6 114.8,326.2 117.1,328 118.9,328 123.2,326.2 125,328.3 127.8,329 128.7,327.4 129.7,327.9 
	132.2,328.1 132.2,328.1 138,328.5 138.3,321.9 139.9,322.1 142.4,323.6 142.3,323.6 143.3,324.1 147.5,325 149.2,325 151.4,327.9 
	157.2,327.6 159.5,331.3 161.6,330.4 167.2,331.2 167.6,333.3 167.6,333.3 167.9,335 169.9,336.9 173.9,338 174,340.4 176.3,342.4 
	178,342.1 180.3,339.2 183,338.7 187.3,340.2 191.2,343.5 192.3,342.1 193.1,342.1 194.1,342.8 195.1,342.3 195.2,340.4 
	199.1,339.5 200.5,337.8 202.4,337.1 205,337.1 206.8,339 209.2,339.2 209.2,336.7 208.1,335.2 206.3,334.4 206,323.2 206,323.2 
	205.9,319 206,314.4 204.3,314.5 203.1,312.7 204,311.3 206.2,313.4 208.3,311.7 209.7,310.3 209.9,309 209.9,309 210,308.2 
	214.8,306.7 215.3,305.6 219,305.4 220.2,303.9 227.4,298.2 231.9,295 233.1,295.1 233.1,295.1 235.5,295.3 235.5,298 238.7,297.8 
	240.5,297.9 241.7,295 246.2,292.3 245.2,290.9 246.2,288.1 250.2,288.7 251.2,281.4 256.5,278.4 256.5,276.5 252.5,272.5 
	252.5,269.5 250.2,265.6 245.2,262.8 244.8,265 243.2,265.2 242.7,263.1 240.4,263.5 240.1,266.1 238.8,265.6 235.5,263.5 
	234.2,264.1 234.2,260.6 "/>
</a>

<polygon class="st1" points="232,259.2 231.4,258.9 231.8,256.1 229.5,253.6 228.6,248.7 225.1,244.2 222.6,244.8 222.1,243 
	220.5,243 220.2,244.6 217,245.6 214.6,239.4 210.6,240.9 209.6,243.1 207.2,241.5 205.2,247.6 203.5,251.7 202.5,250.6 
	202.1,246.7 200.8,246.7 200.2,242.9 197.6,243.2 197.3,241 196.7,240.1 192.7,243.6 192.7,246.7 191.8,246.7 191.4,249.8 
	190.5,250.1 189.8,251.8 185.9,251.8 185.5,251.2 183.4,251.2 182.2,253.1 182,253.1 181.1,252.9 181.9,250.7 180.2,250 181.9,246 
	179.5,244.3 178.8,239.3 176.4,238.7 175,240.1 174.3,238.8 171.9,241.2 170.6,241.4 168,237.6 164.4,236.1 161.6,237.4 
	160.9,237.5 161,237.8 160.2,238.5 160.2,240.2 161.3,241.4 160.2,243.4 159.1,244.1 159,245.4 156.7,245.6 156.8,247.4 
	157.5,247.7 155.8,250 152.8,250.3 152.7,252.4 151.5,253.6 150.9,255.3 148.1,255.4 149.2,259.7 150.4,262.2 150.5,262.4 
	147.9,262.9 145.7,261.6 144.7,265 146.1,266.6 145.5,269 144.7,270 145.2,271.5 142.9,272 140.6,272.6 141.2,274.4 140.5,274.6 
	140.5,274.6 140.1,274.7 140,274.8 140,274.8 139.4,275.3 137.5,273.4 133.3,273.8 132.2,275.7 129.9,276 127.8,276.3 126.8,274.9 
	124.6,277.1 123,275.7 121.9,278 122,279.6 120.8,279.9 120.3,279.1 119.5,276.9 117.5,278.6 116.3,278.1 114.6,278.4 113.2,280.2 
	114.8,282.8 113.7,283.9 114.1,286.1 112.9,287.8 111.9,290.5 113,292.6 116.3,292.8 116.6,292.8 118.8,296.3 117.3,297.7 
	120,301.7 118.7,303.4 116.6,308.1 112.9,311.3 113.8,313.1 113.2,313.5 111.1,313.1 110.6,317.6 109.5,318.5 109.2,321.7 
	109.8,321.4 112,322.6 114.6,324.6 114.8,326.2 117.1,328 118.9,328 123.2,326.2 125,328.3 127.8,329 128.7,327.4 129.7,327.9 
	132.2,328.1 132.2,328.1 138,328.5 138.3,321.9 139.9,322.1 142.4,323.6 142.3,323.6 143.3,324.1 147.5,325 149.2,325 151.4,327.9 
	157.2,327.6 159.5,331.3 161.6,330.4 167.2,331.2 167.6,333.3 167.6,333.3 167.9,335 169.9,336.9 173.9,338 174,340.4 176.3,342.4 
	178,342.1 180.3,339.2 183,338.7 187.3,340.2 191.2,343.5 192.3,342.1 193.1,342.1 194.1,342.8 195.1,342.3 195.2,340.4 
	199.1,339.5 200.5,337.8 202.4,337.1 205,337.1 206.8,339 209.2,339.2 209.2,336.7 208.1,335.2 206.3,334.4 206,323.2 206,323.2 
	205.9,319 206,314.4 204.3,314.5 203.1,312.7 204,311.3 206.2,313.4 208.3,311.7 209.7,310.3 209.9,309 209.9,309 210,308.2 
	214.8,306.7 215.3,305.6 219,305.4 220.2,303.9 227.4,298.2 231.9,295 233.1,295.1 233.1,295.1 235.5,295.3 235.5,298 238.7,297.8 
	240.5,297.9 241.7,295 246.2,292.3 245.2,290.9 246.2,288.1 250.2,288.7 251.2,281.4 256.5,278.4 256.5,276.5 252.5,272.5 
	252.5,269.5 250.2,265.6 245.2,262.8 244.8,265 243.2,265.2 242.7,263.1 240.4,263.5 240.1,266.1 238.8,265.6 235.5,263.5 
	234.2,264.1 234.2,260.6 "/>

<a href="/group/{{ data['FR-ARA'].id }}">
<path class="region ara color-{{ data['FR-ARA'].progress_srb }}" d="M318.3,218.7l-1.9-0.7l-0.5-1.9l-3.6-2.1c0-0.8,0.2-4-0.2-4.8l0.3-0.2h-0.6c-0.4,0.1-2,0.2-2.4,0.3l-1.9-2.2
	l0.1-2.3h0l0.1-2l4.5-1.9l0.6-1.5l-0.3-3.1l-3.1-3.2l-0.8,0.4v-3l-2.6-1.2l-0.1-0.9l1.5-1.6v-2l-2.4-2.6l-0.1-1.8l-4.8,0l-3.1,0.5
	l-2.8,2.3l-0.7-1.1l-1.7,0.2l-1.4,3.1l0,0.1l0.2,1.3l1.3,1.1l-2.5,1.6l-1.7,1.6h-2.9l0,0h-1.2v-2.2l1.5-0.9l2.5-0.3l0.2-1.6
	l-0.7-0.5l1.9-2.5l-0.3-1l-2.5-1.3l-5.6,6.2h-3.6v-1.5l-2.4-1.2l-2.6,2.9l-1.7,0.2v-1.8l-1.8-0.8l-2.7-3.7l-2.4-0.9l-0.8-1.8
	l-1.5-0.3l-1.4,1l-0.9,0.2l-1.5-1.2l-1.7,0.2l-1,1.9l-2.5,9.9l-0.4,0.8v0l0,0l-0.4,0.9l-0.6-0.1l-0.5-2.6l-0.7-2.3l-1.7,0.1
	l-1.1,1.1l-0.8-1.1l-1.2,1.1l-1.5-1h-1.5l-0.7,0.5l-0.3,1.7l0,0l-0.5,2.4h-1.4l-1,1l-0.7-0.7l-4.3-0.7l-0.1,0l-1.6,1h-0.9l-0.2-0.9
	l-2-0.4l-0.1-2.1l-0.4-0.1l2.6-2l0.1-5.4l-1-1.5h-2.1l-0.8-1.1h-2.3l-0.6-0.7v-1.9l-2.7-5.2l-1.6-1.1l-2.6,3.6l-0.8,0.2l-0.4-1.6
	l-1.5-0.7l-0.6,1.1h-1.7l-0.3-1.3l-1.6,0.9l-1.3,0.7l-1.5-1.6l-2.2-1.1l-0.1-1.8l-3.4-0.3l-1.9,2.4l-1.1,0.1l-1.1,1.1l-1.3-1.5
	l-3.8,3.8v2.3l0.7,0.5l0.1,0.9l-1.7,1.3l-1.7-0.5l-3.4,0.7l-1.8,2l-0.8,1.8l0.4-0.1l1.5,2.1v1.6l1.1,1.5l0.9-1.2l1,1.7l1.5,0.5
	l1.4,3.4l0.1,1.1l0,0l0.2,3.1l1.1,1.3l0.5,2.4l-1.6,1.2l-0.4,1.9l-1.4,0.8l-2.7,1.6l0.3,1.4l3.1,3.1l0.3,1.7l-1.2,2v2l0.8,1l0.4,2.2
	l-0.3,1.1l0,0l-0.4,1.3l0.6,1.6L190,224h-1.1l-1.3-1.4l-1.5-0.9l-0.1,4l-2.3,1.4l-1.8,2.5l0.4,2.4l-0.5,1l-0.6,2h-1l-1.2,1.5
	l0.9,0.9l0.5,1.1l-1.7,1.2l0.7,4.7l2.2,1.6l-1.7,4l1.7,0.8l-0.8,2.3l1.9,0.2l1.1-1.9h1.7l0.4,0.6h4.4l0.8-1.7l1-0.4l0.4-3h1v-3.3
	l3.5-3l0.2,0.3l0.4,2.6l2.6-0.4l0.6,3.8h1.3l0.4,3.6l0,0.1l1.4,1.8l2.1-4.8l1.8-5.6l2.4,1.6l1.1-2.5l3.4-1.2l0.1,0l2.4,6.2l3.8-1.2
	l0.2-1.6h1l0.5,1.9l2.5-0.6l2.9,3.7h0l0.1,0.2l0.1,0.2l0,0l0.1,0.1l0.9,4.9l0,0.1l2.2,2.4l-0.4,2.9l2.9,1.7v4l1.7-0.9l3.1,2.1
	l1.8,0.6l0.4-2.8l1.6-0.3l0.6,2.1l2.2-0.2l0.3-1.9l4.3,2.4l0.8-1.5l1.9-0.3v0l1.5-0.2l0.7,0.8l-0.4,2.7l0.7,0.9l2.1-2.1l1.8-0.1
	l0.5-1.4l-2.4-0.3l-0.3-2.2l1.4-2.1l1.7-0.1l1.7,1.6l-1.8,2.5l0.7,1.2l2.9,0.3l1.1-0.9l-0.6,1.2l0.3,1.8l3,0.3l3.6,0.3l0.5,1.7
	l2.1,1.6l1.9,0.1l1.3-1.2l0.6-1.8l0.8,0.7l1.1,1.3l0.6-5.6l-1.4-0.3l-0.8-1.7l-4.5-1.2l-0.5-2l1.8-1.2l-1.5-1l0.2-0.9l1.9,0.1l2,1
	l1.7-2l-1.6-1.3l0.1-1.5l0.8-2.4l2.7-0.3l2.4-1l0.2-0.5l0,0l0-0.1l0.1-0.3h0l0.1-0.3l-1.1-0.6v-1.3h3.2l1.2-1.2l-0.7-1.2l1.5-1.2
	l1.2,0.5l1.7-1.5l3.1,0.5l1.1-1.2l2.7,0.1v-3.3l-1.1-0.6l-0.6-1.8l-2.8-0.3l-0.3-0.5l0.5-2.7l0.8-0.7l2.3-0.2l0.7,0.7l0.4,2l2.7-0.3
	l0.3-2.1l1-0.5l2.9,0.1l-0.1-0.2l3.7-1.5l1.4,0.9h1.7l0.1-1.7l1.6-0.9l0.7-0.8l3.5-1.4l0.4-2.5l-0.7-1L318.3,218.7z"/>
</a>

<path class="st1" d="M318.3,218.7l-1.9-0.7l-0.5-1.9l-3.6-2.1c0-0.8,0.2-4-0.2-4.8l0.3-0.2h-0.6c-0.4,0.1-2,0.2-2.4,0.3l-1.9-2.2
	l0.1-2.3h0l0.1-2l4.5-1.9l0.6-1.5l-0.3-3.1l-3.1-3.2l-0.8,0.4v-3l-2.6-1.2l-0.1-0.9l1.5-1.6v-2l-2.4-2.6l-0.1-1.8l-4.8,0l-3.1,0.5
	l-2.8,2.3l-0.7-1.1l-1.7,0.2l-1.4,3.1l0,0.1l0.2,1.3l1.3,1.1l-2.5,1.6l-1.7,1.6h-2.9l0,0h-1.2v-2.2l1.5-0.9l2.5-0.3l0.2-1.6
	l-0.7-0.5l1.9-2.5l-0.3-1l-2.5-1.3l-5.6,6.2h-3.6v-1.5l-2.4-1.2l-2.6,2.9l-1.7,0.2v-1.8l-1.8-0.8l-2.7-3.7l-2.4-0.9l-0.8-1.8
	l-1.5-0.3l-1.4,1l-0.9,0.2l-1.5-1.2l-1.7,0.2l-1,1.9l-2.5,9.9l-0.4,0.8v0l0,0l-0.4,0.9l-0.6-0.1l-0.5-2.6l-0.7-2.3l-1.7,0.1
	l-1.1,1.1l-0.8-1.1l-1.2,1.1l-1.5-1h-1.5l-0.7,0.5l-0.3,1.7l0,0l-0.5,2.4h-1.4l-1,1l-0.7-0.7l-4.3-0.7l-0.1,0l-1.6,1h-0.9l-0.2-0.9
	l-2-0.4l-0.1-2.1l-0.4-0.1l2.6-2l0.1-5.4l-1-1.5h-2.1l-0.8-1.1h-2.3l-0.6-0.7v-1.9l-2.7-5.2l-1.6-1.1l-2.6,3.6l-0.8,0.2l-0.4-1.6
	l-1.5-0.7l-0.6,1.1h-1.7l-0.3-1.3l-1.6,0.9l-1.3,0.7l-1.5-1.6l-2.2-1.1l-0.1-1.8l-3.4-0.3l-1.9,2.4l-1.1,0.1l-1.1,1.1l-1.3-1.5
	l-3.8,3.8v2.3l0.7,0.5l0.1,0.9l-1.7,1.3l-1.7-0.5l-3.4,0.7l-1.8,2l-0.8,1.8l0.4-0.1l1.5,2.1v1.6l1.1,1.5l0.9-1.2l1,1.7l1.5,0.5
	l1.4,3.4l0.1,1.1l0,0l0.2,3.1l1.1,1.3l0.5,2.4l-1.6,1.2l-0.4,1.9l-1.4,0.8l-2.7,1.6l0.3,1.4l3.1,3.1l0.3,1.7l-1.2,2v2l0.8,1l0.4,2.2
	l-0.3,1.1l0,0l-0.4,1.3l0.6,1.6L190,224h-1.1l-1.3-1.4l-1.5-0.9l-0.1,4l-2.3,1.4l-1.8,2.5l0.4,2.4l-0.5,1l-0.6,2h-1l-1.2,1.5
	l0.9,0.9l0.5,1.1l-1.7,1.2l0.7,4.7l2.2,1.6l-1.7,4l1.7,0.8l-0.8,2.3l1.9,0.2l1.1-1.9h1.7l0.4,0.6h4.4l0.8-1.7l1-0.4l0.4-3h1v-3.3
	l3.5-3l0.2,0.3l0.4,2.6l2.6-0.4l0.6,3.8h1.3l0.4,3.6l0,0.1l1.4,1.8l2.1-4.8l1.8-5.6l2.4,1.6l1.1-2.5l3.4-1.2l0.1,0l2.4,6.2l3.8-1.2
	l0.2-1.6h1l0.5,1.9l2.5-0.6l2.9,3.7h0l0.1,0.2l0.1,0.2l0,0l0.1,0.1l0.9,4.9l0,0.1l2.2,2.4l-0.4,2.9l2.9,1.7v4l1.7-0.9l3.1,2.1
	l1.8,0.6l0.4-2.8l1.6-0.3l0.6,2.1l2.2-0.2l0.3-1.9l4.3,2.4l0.8-1.5l1.9-0.3v0l1.5-0.2l0.7,0.8l-0.4,2.7l0.7,0.9l2.1-2.1l1.8-0.1
	l0.5-1.4l-2.4-0.3l-0.3-2.2l1.4-2.1l1.7-0.1l1.7,1.6l-1.8,2.5l0.7,1.2l2.9,0.3l1.1-0.9l-0.6,1.2l0.3,1.8l3,0.3l3.6,0.3l0.5,1.7
	l2.1,1.6l1.9,0.1l1.3-1.2l0.6-1.8l0.8,0.7l1.1,1.3l0.6-5.6l-1.4-0.3l-0.8-1.7l-4.5-1.2l-0.5-2l1.8-1.2l-1.5-1l0.2-0.9l1.9,0.1l2,1
	l1.7-2l-1.6-1.3l0.1-1.5l0.8-2.4l2.7-0.3l2.4-1l0.2-0.5l0,0l0-0.1l0.1-0.3h0l0.1-0.3l-1.1-0.6v-1.3h3.2l1.2-1.2l-0.7-1.2l1.5-1.2
	l1.2,0.5l1.7-1.5l3.1,0.5l1.1-1.2l2.7,0.1v-3.3l-1.1-0.6l-0.6-1.8l-2.8-0.3l-0.3-0.5l0.5-2.7l0.8-0.7l2.3-0.2l0.7,0.7l0.4,2l2.7-0.3
	l0.3-2.1l1-0.5l2.9,0.1l-0.1-0.2l3.7-1.5l1.4,0.9h1.7l0.1-1.7l1.6-0.9l0.7-0.8l3.5-1.4l0.4-2.5l-0.7-1L318.3,218.7z"/>

<a href="/group/{{ data['FR-CVL'].id }}">
<polygon class="region centre color-{{ data['FR-CVL'].progress_srb }}" points="190.6,112.5 188.9,111.7 187.5,109.6 183.9,109.4 182.4,108.1 180.6,109.8 177.1,110.1 177.1,110.1
	176.8,110.1 176.6,110.1 176.6,110.1 176.6,110.1 176.3,106.7 176,106.3 175.8,104.5 172.9,103.9 171.8,102.5 171.4,99.5 
	169.8,99.2 169.5,97.8 167.6,96.5 166.7,94.3 167.7,92.7 166.7,91.6 166.7,90.4 167.3,88.8 166.2,87.7 165.7,86.1 164.3,84.6 
	163.2,85.4 163.2,87.5 160.6,88.8 160.6,90.9 159.9,91.7 156.7,91.7 155,91 150.2,93.6 148.3,93.6 146.1,95.7 146.7,96 146.8,98.3 
	149.6,100.7 149.9,105.5 148.7,107 146.7,107.4 144.5,108.7 144.8,109.9 145.8,111.1 145.8,114.4 146.2,114.5 147.8,115.6 
	147.4,116.2 147.3,116.2 147.2,116.4 147.1,116.5 147.1,116.5 146.3,117.5 145.2,119.5 146.6,120.8 146.4,123.4 145.9,125.1 
	144.6,125.1 144.6,127.8 142.8,130.1 140.8,130.9 139.7,132.3 140.1,133.1 140.1,133.1 140.2,133.3 140.2,133.5 140.2,133.5 
	140.3,133.8 136.6,134.8 135.8,136 133.9,134.8 134.8,137.7 133.6,137.7 130.8,135.7 129.3,138.7 130,139.6 130,140.3 128.7,142 
	128.8,144.9 126.7,147.4 125.1,153.2 125.4,153.2 125.9,155.3 128.4,155.9 128.4,157.5 131.6,158.4 131.6,160.8 131.5,162.6 
	135.7,162.6 139.4,161.7 139.1,160.2 139.9,159.7 140.9,161.1 141.8,161.5 142.6,164.6 144.8,167 145.1,168.9 147.3,171.1 
	147.5,171.3 147.5,173.7 146.9,175.4 149.6,177.5 150.9,178.9 153,179.2 153.8,181.9 155.2,182.7 155,184.4 154.1,184.6 154.1,185 
	154.5,185.1 157.9,185.3 159,184.2 161.2,186.4 163.9,183.3 165,184 166.6,183.9 167.1,184.1 169.7,184.3 170.5,182.1 177,182.9 
	179.6,183.6 180.5,183.5 180.5,183.5 180.8,183.4 180.9,183.4 184,183.1 184.7,181.6 186.3,179.7 189.6,179 191.4,179.6 193.4,178 
	193.2,176.7 192.6,176.2 192.6,174.2 196,170.8 197.3,172.3 198.6,171 199.7,170.9 201.5,168.5 204.3,168.7 204.3,169.3 
	204.7,169.3 205.8,166 205.1,164.7 205.2,163.1 205.7,159.5 204.2,158 204.5,154.9 203.1,152 203,150.1 200.5,148.2 200.2,146.8 
	201.4,145.1 201.4,142.4 200.1,140.9 200.1,140.9 199.9,140.6 199.8,140.6 199.8,140.6 199.8,140.5 199.7,139.4 202.4,138.6 
	201.9,136.9 201.5,134.8 199.8,132.4 199.4,131.2 201.9,131.2 203.9,129.7 204.2,127.6 203.1,126.3 206.5,123.4 206.5,120.9 
	204.7,119 204,116.8 201.5,114.4 198.2,116.2 198,115.3 196.2,115.1 195.8,116.2 194.7,116.4 191,116.3 189.6,117.2 188.7,116.4 
	190.7,115 "/>
</a>

<polygon class="st1" points="190.6,112.5 188.9,111.7 187.5,109.6 183.9,109.4 182.4,108.1 180.6,109.8 177.1,110.1 177.1,110.1 
	176.8,110.1 176.6,110.1 176.6,110.1 176.6,110.1 176.3,106.7 176,106.3 175.8,104.5 172.9,103.9 171.8,102.5 171.4,99.5 
	169.8,99.2 169.5,97.8 167.6,96.5 166.7,94.3 167.7,92.7 166.7,91.6 166.7,90.4 167.3,88.8 166.2,87.7 165.7,86.1 164.3,84.6 
	163.2,85.4 163.2,87.5 160.6,88.8 160.6,90.9 159.9,91.7 156.7,91.7 155,91 150.2,93.6 148.3,93.6 146.1,95.7 146.7,96 146.8,98.3 
	149.6,100.7 149.9,105.5 148.7,107 146.7,107.4 144.5,108.7 144.8,109.9 145.8,111.1 145.8,114.4 146.2,114.5 147.8,115.6 
	147.4,116.2 147.3,116.2 147.2,116.4 147.1,116.5 147.1,116.5 146.3,117.5 145.2,119.5 146.6,120.8 146.4,123.4 145.9,125.1 
	144.6,125.1 144.6,127.8 142.8,130.1 140.8,130.9 139.7,132.3 140.1,133.1 140.1,133.1 140.2,133.3 140.2,133.5 140.2,133.5 
	140.3,133.8 136.6,134.8 135.8,136 133.9,134.8 134.8,137.7 133.6,137.7 130.8,135.7 129.3,138.7 130,139.6 130,140.3 128.7,142 
	128.8,144.9 126.7,147.4 125.1,153.2 125.4,153.2 125.9,155.3 128.4,155.9 128.4,157.5 131.6,158.4 131.6,160.8 131.5,162.6 
	135.7,162.6 139.4,161.7 139.1,160.2 139.9,159.7 140.9,161.1 141.8,161.5 142.6,164.6 144.8,167 145.1,168.9 147.3,171.1 
	147.5,171.3 147.5,173.7 146.9,175.4 149.6,177.5 150.9,178.9 153,179.2 153.8,181.9 155.2,182.7 155,184.4 154.1,184.6 154.1,185 
	154.5,185.1 157.9,185.3 159,184.2 161.2,186.4 163.9,183.3 165,184 166.6,183.9 167.1,184.1 169.7,184.3 170.5,182.1 177,182.9 
	179.6,183.6 180.5,183.5 180.5,183.5 180.8,183.4 180.9,183.4 184,183.1 184.7,181.6 186.3,179.7 189.6,179 191.4,179.6 193.4,178 
	193.2,176.7 192.6,176.2 192.6,174.2 196,170.8 197.3,172.3 198.6,171 199.7,170.9 201.5,168.5 204.3,168.7 204.3,169.3 
	204.7,169.3 205.8,166 205.1,164.7 205.2,163.1 205.7,159.5 204.2,158 204.5,154.9 203.1,152 203,150.1 200.5,148.2 200.2,146.8 
	201.4,145.1 201.4,142.4 200.1,140.9 200.1,140.9 199.9,140.6 199.8,140.6 199.8,140.6 199.8,140.5 199.7,139.4 202.4,138.6 
	201.9,136.9 201.5,134.8 199.8,132.4 199.4,131.2 201.9,131.2 203.9,129.7 204.2,127.6 203.1,126.3 206.5,123.4 206.5,120.9 
	204.7,119 204,116.8 201.5,114.4 198.2,116.2 198,115.3 196.2,115.1 195.8,116.2 194.7,116.4 191,116.3 189.6,117.2 188.7,116.4 
	190.7,115 "/>

<a href="/group/{{ data['FR-NAQ'].id }}">
<path class="region aquitaine color-{{ data['FR-NAQ'].progress_srb }}" d="M89.4,204.9l-0.2-0.8l1.2-1.6l0.1,1.9l0.2,0.4H89.4z M193,198l-1.1-1.4l-0.3-4.1l-1.5-3.6l-1.5-0.5l-1.2-2.1
	l-1,1.2l-0.7-0.9V185l-1.7-2.4l-4.5,0.5l-2.5-0.7l-6.8-0.8l-0.8,2.1l-2.2-0.1l-0.5-0.3l-1.6,0.1l-1.3-0.9l-2.1,2.4v0l-0.3,0.3
	l-0.1,0.1v0l-0.2,0.2l-2.1-2.1l-1.3,1.3l-2.4-0.2l0.3-2.3l-1.5-0.8l-0.8-2.8l-2.2-0.3l-1.3-1.3l-2.4-1.9l0.5-1.5l0-2.7l-2.4-2.4
	l-0.3-1.9l-2.3-2.4l-0.8-3.3l-1-0.4l-1.1-1.6l-1.4,0.8l0.3,1.4l-3.2,0.8h-3.8l0.1-1.4v-2.7l-3.2-0.9v-1.6l-2.6-0.5l-0.5-2.2h-1.4
	l-2.6,2.8l-0.3,0.5v0l-0.5,0.9l-0.7-0.6l-0.4-1l-3.8,0.1l-3.3,0.7l-3.8,0.3v1.9l-1.7,1.1l-4.1-0.9l-3.1,1.3l1.4,2v1.6l3.2,2.6
	l-0.8,1.7l2.1,2.4l-0.9,1.2l1.4,2.1l0.4,3.6l-0.8,1.1l0.9,1.6l-0.9,1.7l0.2,1.5l1.2-0.9l1,1l-1.6,1.1l-0.7,0.8l-1.4,0.4l-1.6,0.8
	l0,0l-0.3-0.3v0l-1.8-1.3l-2.4,1l-0.8-2.1l-2,0.1l-4.4,2.7l1,0.9l-2,1.6l-0.2,1.3l-1.7,0.2l-1-1.2l-2.6-0.2l-0.3-1.3l-1.8-1.2
	l-2.6,0.9l1.7,2.4h1.9l1.8,1.2l1.5,1.2l2.7-0.1l0.5,1.2l1.8,0.4l0.7,1.8l1.1,0.5l-0.1,1.1l-1.5-0.2l-0.7,1l1.2,1.8l-0.6,2.7
	l-1.7-0.1l-0.4-0.9l-0.7-0.6l-0.3-3.3l-2.3-0.3l-2.1-2.6l-0.3,5.3l3.1,2.3l0.2,2.5l0.5,2.9l0.3,3.2l1.7-0.2l2.8,2.3l1.8,1l0.1,1.4
	l1.6,0.3l4.2,4.2l1,4.7h0l1.1,4.5l0.3,3.8l-0.4,0.6l-0.6-2.7l-1.9-7.4l-6.8-6.1l0.2-2.9l-1.7-0.2l-2.2,3.4l-0.7,11.3l-1.7,11.4
	l-1.2,8.8l-0.1,2.3l0.4,0.1l0.9-3l1.7-2.2l2.5,2.2l0.3,0.7l0.6,0.8l-2.8,0.1l-0.6-0.9l-1.6,0.6l-0.3,2.1l-1.5,2l0,3.1l0,0.1
	l-2.4,12.7L80,281.5l-0.9,4.6l-0.8,3.2l-1.9,3.2l0,0l-0.1,0.2l-0.1,0.2l0,0l-0.4,0.8l-3,3.7l-2.3,0.9l-1.9,0.3v1.7l1.7,1.6l2.3,0.1
	l0.1,1.7l2.2,0.2l0.5-1.2l2.4,1l1.5,0.4l0.3,1.4l-0.9,0.8v2.5l-1.9,0.9l-0.1,1.4l1.3,1.5l2.4,0.7l0.4-2.2l0.8-0.8l-0.1,1.2l1,1.5
	h2.4l1.1,1.4l3.2,0.5l3.1,1.9h4.9l0.3,2.7l3.5,2.7l1.5,1.7l1.6-0.9l1.2-0.2l0.7,0.7l3.8-2.1l0.2-2.8l1.1-0.8l0.5-4.3l1.8,0.4l1-0.7
	l-0.9-1.9l3.5-3l2.2-4.8l1.4-1.8l-2.7-4l1.5-1.3l-2.4-4l-3.6-0.3l0-0.1l-0.1-0.3l0,0l-0.8-1.4l0.9-2.4l1.4-1.8l-0.4-2.3l1.1-1.1
	l-1.6-2.7l1.2-1.4l1.3-0.3l1.4,0.6l1.7-1.5l0.6,1.7l0.8,1.1l1.8-0.5l-0.1-1.8l0.4-1l0.4-0.8l1.5,1.3l2.1-2.1l0.9,1.2l2.4-0.4
	l2.5-0.3l1.1-1.9l3.8-0.4l2.1,2.1l0.8-0.8l1.5-0.4l-0.5-1.9l1.8-0.5l2.8-0.6l-0.6-1.7l0.7-0.9l0.7-2.7l-1.5-1.6l0.8-2.7l1.8,1.1
	l3.3-0.6l-1.4-3.2l-1-3.8l2.5-0.1l0.7-1.7l0,0l0-0.1l1.2-1.2l0.1-1.9l2.8-0.3l2.1-3l-0.9-0.3l-0.1-1.1l2.2-0.3l0.2-1.4l1-0.6
	l1.3-2.3l-1.2-1.4v-1.3l1-0.8l0,0l0.1,0l2.8-1.3l3.3,1.5l2.7,3.8l1.7-0.2l2.1-2.1l0.7,1.3l1.6-1.6l1.8,0.5l0.1,0.6l2.1-1.5l-0.6-1.5
	l-0.7-0.8l0.9-1.1h1.1l0.7-2.3l0.6-1.1l-0.4-2.4l1.7-2.3l2.5-1.5l0.1-3.5l0.9,0.5l1.4,1.5h1.5l1-1.1l-0.7-1.7l0.7-2.4l-0.4-2.4
	l-0.8-0.9v-1.8l1.2-2l-0.3-2l-0.2-0.2l0,0l-2.9-2.9l-0.2-1l2.4-1.4l1.6-0.8l0.4-1.9l1.6-1.2L193,198z"/>
</a>

<path class="st1" d="M89.4,204.9l-0.2-0.8l1.2-1.6l0.1,1.9l0.2,0.4H89.4z M193,198l-1.1-1.4l-0.3-4.1l-1.5-3.6l-1.5-0.5l-1.2-2.1
	l-1,1.2l-0.7-0.9V185l-1.7-2.4l-4.5,0.5l-2.5-0.7l-6.8-0.8l-0.8,2.1l-2.2-0.1l-0.5-0.3l-1.6,0.1l-1.3-0.9l-2.1,2.4v0l-0.3,0.3
	l-0.1,0.1v0l-0.2,0.2l-2.1-2.1l-1.3,1.3l-2.4-0.2l0.3-2.3l-1.5-0.8l-0.8-2.8l-2.2-0.3l-1.3-1.3l-2.4-1.9l0.5-1.5l0-2.7l-2.4-2.4
	l-0.3-1.9l-2.3-2.4l-0.8-3.3l-1-0.4l-1.1-1.6l-1.4,0.8l0.3,1.4l-3.2,0.8h-3.8l0.1-1.4v-2.7l-3.2-0.9v-1.6l-2.6-0.5l-0.5-2.2h-1.4
	l-2.6,2.8l-0.3,0.5v0l-0.5,0.9l-0.7-0.6l-0.4-1l-3.8,0.1l-3.3,0.7l-3.8,0.3v1.9l-1.7,1.1l-4.1-0.9l-3.1,1.3l1.4,2v1.6l3.2,2.6
	l-0.8,1.7l2.1,2.4l-0.9,1.2l1.4,2.1l0.4,3.6l-0.8,1.1l0.9,1.6l-0.9,1.7l0.2,1.5l1.2-0.9l1,1l-1.6,1.1l-0.7,0.8l-1.4,0.4l-1.6,0.8
	l0,0l-0.3-0.3v0l-1.8-1.3l-2.4,1l-0.8-2.1l-2,0.1l-4.4,2.7l1,0.9l-2,1.6l-0.2,1.3l-1.7,0.2l-1-1.2l-2.6-0.2l-0.3-1.3l-1.8-1.2
	l-2.6,0.9l1.7,2.4h1.9l1.8,1.2l1.5,1.2l2.7-0.1l0.5,1.2l1.8,0.4l0.7,1.8l1.1,0.5l-0.1,1.1l-1.5-0.2l-0.7,1l1.2,1.8l-0.6,2.7
	l-1.7-0.1l-0.4-0.9l-0.7-0.6l-0.3-3.3l-2.3-0.3l-2.1-2.6l-0.3,5.3l3.1,2.3l0.2,2.5l0.5,2.9l0.3,3.2l1.7-0.2l2.8,2.3l1.8,1l0.1,1.4
	l1.6,0.3l4.2,4.2l1,4.7h0l1.1,4.5l0.3,3.8l-0.4,0.6l-0.6-2.7l-1.9-7.4l-6.8-6.1l0.2-2.9l-1.7-0.2l-2.2,3.4l-0.7,11.3l-1.7,11.4
	l-1.2,8.8l-0.1,2.3l0.4,0.1l0.9-3l1.7-2.2l2.5,2.2l0.3,0.7l0.6,0.8l-2.8,0.1l-0.6-0.9l-1.6,0.6l-0.3,2.1l-1.5,2l0,3.1l0,0.1
	l-2.4,12.7L80,281.5l-0.9,4.6l-0.8,3.2l-1.9,3.2l0,0l-0.1,0.2l-0.1,0.2l0,0l-0.4,0.8l-3,3.7l-2.3,0.9l-1.9,0.3v1.7l1.7,1.6l2.3,0.1
	l0.1,1.7l2.2,0.2l0.5-1.2l2.4,1l1.5,0.4l0.3,1.4l-0.9,0.8v2.5l-1.9,0.9l-0.1,1.4l1.3,1.5l2.4,0.7l0.4-2.2l0.8-0.8l-0.1,1.2l1,1.5
	h2.4l1.1,1.4l3.2,0.5l3.1,1.9h4.9l0.3,2.7l3.5,2.7l1.5,1.7l1.6-0.9l1.2-0.2l0.7,0.7l3.8-2.1l0.2-2.8l1.1-0.8l0.5-4.3l1.8,0.4l1-0.7
	l-0.9-1.9l3.5-3l2.2-4.8l1.4-1.8l-2.7-4l1.5-1.3l-2.4-4l-3.6-0.3l0-0.1l-0.1-0.3l0,0l-0.8-1.4l0.9-2.4l1.4-1.8l-0.4-2.3l1.1-1.1
	l-1.6-2.7l1.2-1.4l1.3-0.3l1.4,0.6l1.7-1.5l0.6,1.7l0.8,1.1l1.8-0.5l-0.1-1.8l0.4-1l0.4-0.8l1.5,1.3l2.1-2.1l0.9,1.2l2.4-0.4
	l2.5-0.3l1.1-1.9l3.8-0.4l2.1,2.1l0.8-0.8l1.5-0.4l-0.5-1.9l1.8-0.5l2.8-0.6l-0.6-1.7l0.7-0.9l0.7-2.7l-1.5-1.6l0.8-2.7l1.8,1.1
	l3.3-0.6l-1.4-3.2l-1-3.8l2.5-0.1l0.7-1.7l0,0l0-0.1l1.2-1.2l0.1-1.9l2.8-0.3l2.1-3l-0.9-0.3l-0.1-1.1l2.2-0.3l0.2-1.4l1-0.6
	l1.3-2.3l-1.2-1.4v-1.3l1-0.8l0,0l0.1,0l2.8-1.3l3.3,1.5l2.7,3.8l1.7-0.2l2.1-2.1l0.7,1.3l1.6-1.6l1.8,0.5l0.1,0.6l2.1-1.5l-0.6-1.5
	l-0.7-0.8l0.9-1.1h1.1l0.7-2.3l0.6-1.1l-0.4-2.4l1.7-2.3l2.5-1.5l0.1-3.5l0.9,0.5l1.4,1.5h1.5l1-1.1l-0.7-1.7l0.7-2.4l-0.4-2.4
	l-0.8-0.9v-1.8l1.2-2l-0.3-2l-0.2-0.2l0,0l-2.9-2.9l-0.2-1l2.4-1.4l1.6-0.8l0.4-1.9l1.6-1.2L193,198z"/>

<a href="/group/{{ data['FR-BFC'].id }}">
<polygon class="region bourgogne color-{{ data['FR-BFC'].progress_srb }}" points="306.3,126.6 304.2,126.5 303.8,125.6 303.7,125.5 299.4,123.2 298.3,121.9 296.9,121 295.7,121.6
	295.5,122.4 294.6,123 294.1,123 292.1,120.7 289.1,120.7 287.9,121.7 287,121.8 285.4,120.6 285.5,119.1 284.7,118.5 282,118.9 
	281.5,120.3 280.4,121.1 279.5,120 278.5,120.6 279,121.4 277.7,122.2 278.1,123.2 276.7,123.7 276.7,125.4 274.8,125.4 
	274.7,126.5 272.8,126.9 273,128.9 274,129 273.5,129.5 273.1,132.1 272.1,132.1 270.1,132.9 268,132.1 265.9,133 265.9,134.2 
	265.9,134.2 265.3,135.6 262.6,136.2 262.4,135.7 260.2,132.8 258.9,133.6 257.4,133.4 256.9,132.4 254.8,132.5 254.7,130.3 
	253.6,129.6 255.3,127.8 252.1,123.5 249.7,120.9 247.5,119.7 243.4,119.7 243.1,121.5 241.5,122.3 237.4,122.5 237.3,122 
	237,122.5 236.9,122.5 237,122.6 236.4,123.9 235.7,123.8 234.9,122.3 232.1,123.7 226.9,123.4 226.3,122 224.8,120.1 224.6,117.6 
	222.3,114.9 220.9,115.9 218.7,114.2 219.1,110.6 215.5,106.8 213.9,106.8 212.9,106 211.6,106.9 206.5,106.7 204,107.9 
	202.9,110.1 204,111.3 201.1,114.7 203.7,117 204.3,119.1 206,121 206,123.3 202.5,126.3 203.7,127.7 203.5,129.5 201.8,130.8 
	198.9,130.8 199.4,132.5 201.1,134.9 201.5,137 201.9,138.3 200.5,138.7 200.5,138.7 199.2,139.1 199.4,140.7 201,142.5 201,144.9 
	199.8,146.7 200.2,148.5 202.6,150.3 202.7,152.1 204,155 203.8,158.2 205.2,159.7 204.8,163 204.7,164.8 205.3,166 204.3,169.2 
	204.4,170.4 206.8,171.5 208.5,173.4 210.1,172.5 211.2,171.8 211.4,172.9 213.7,172.9 214.2,171.9 215.1,172.3 215.5,174.1 
	216.9,173.8 219.3,170.4 220.5,171.2 220.8,171.8 220.8,171.8 223.1,176.2 223.1,178.2 223.9,179.2 226.1,179.2 226.9,180.3 
	229.1,180.3 229.9,181.4 229.8,186.5 227,188.6 226.8,189.1 227.3,189.1 227.5,189.1 227.6,191.3 229.7,191.7 229.9,192.7 
	231.2,192.7 232.8,191.7 236.9,192.4 237.8,193.3 239,192.2 240.6,192.2 241.4,187.8 241.8,187.5 243,187.5 244.7,188.6 
	245.8,187.6 246.6,188.6 247.9,187.3 249.2,187.2 249.8,189.2 250.3,192 251.6,192.2 252.4,190.1 254.9,180.3 255.8,178.6 
	257.1,178.5 258.6,179.7 259.8,179.4 261.1,178.5 262.2,178.8 263,180.5 263.9,180.8 263.9,180.8 265.4,181.4 268.1,185.2 
	269.8,185.9 269.8,187.9 272.1,187.6 274.6,184.8 276.5,185.8 276.5,187.5 280.6,187.5 286.4,181.1 286,180.9 286.3,178.3 
	288.4,175.7 287,175.1 287.1,174.4 287.1,174.4 295.3,166.7 295.4,166.7 295.1,160.3 297.9,158.9 299.9,157.9 301.9,156.1 
	302,153.6 303.8,152.7 308.2,147.6 307.6,146.1 308.9,145.5 310.8,143.2 309.6,142 306.5,142.7 306.5,142.4 309.5,138.9 
	309.5,138.9 309.8,138.6 311.7,138.3 311,135.2 310.5,133.5 308.7,133.8 308.5,132.5 309.1,131.3 309.2,129.6 308.8,128.6 "/>
</a>

<polygon class="st1" points="306.3,126.6 304.2,126.5 303.8,125.6 303.7,125.5 299.4,123.2 298.3,121.9 296.9,121 295.7,121.6 
	295.5,122.4 294.6,123 294.1,123 292.1,120.7 289.1,120.7 287.9,121.7 287,121.8 285.4,120.6 285.5,119.1 284.7,118.5 282,118.9 
	281.5,120.3 280.4,121.1 279.5,120 278.5,120.6 279,121.4 277.7,122.2 278.1,123.2 276.7,123.7 276.7,125.4 274.8,125.4 
	274.7,126.5 272.8,126.9 273,128.9 274,129 273.5,129.5 273.1,132.1 272.1,132.1 270.1,132.9 268,132.1 265.9,133 265.9,134.2 
	265.9,134.2 265.3,135.6 262.6,136.2 262.4,135.7 260.2,132.8 258.9,133.6 257.4,133.4 256.9,132.4 254.8,132.5 254.7,130.3 
	253.6,129.6 255.3,127.8 252.1,123.5 249.7,120.9 247.5,119.7 243.4,119.7 243.1,121.5 241.5,122.3 237.4,122.5 237.3,122 
	237,122.5 236.9,122.5 237,122.6 236.4,123.9 235.7,123.8 234.9,122.3 232.1,123.7 226.9,123.4 226.3,122 224.8,120.1 224.6,117.6 
	222.3,114.9 220.9,115.9 218.7,114.2 219.1,110.6 215.5,106.8 213.9,106.8 212.9,106 211.6,106.9 206.5,106.7 204,107.9 
	202.9,110.1 204,111.3 201.1,114.7 203.7,117 204.3,119.1 206,121 206,123.3 202.5,126.3 203.7,127.7 203.5,129.5 201.8,130.8 
	198.9,130.8 199.4,132.5 201.1,134.9 201.5,137 201.9,138.3 200.5,138.7 200.5,138.7 199.2,139.1 199.4,140.7 201,142.5 201,144.9 
	199.8,146.7 200.2,148.5 202.6,150.3 202.7,152.1 204,155 203.8,158.2 205.2,159.7 204.8,163 204.7,164.8 205.3,166 204.3,169.2 
	204.4,170.4 206.8,171.5 208.5,173.4 210.1,172.5 211.2,171.8 211.4,172.9 213.7,172.9 214.2,171.9 215.1,172.3 215.5,174.1 
	216.9,173.8 219.3,170.4 220.5,171.2 220.8,171.8 220.8,171.8 223.1,176.2 223.1,178.2 223.9,179.2 226.1,179.2 226.9,180.3 
	229.1,180.3 229.9,181.4 229.8,186.5 227,188.6 226.8,189.1 227.3,189.1 227.5,189.1 227.6,191.3 229.7,191.7 229.9,192.7 
	231.2,192.7 232.8,191.7 236.9,192.4 237.8,193.3 239,192.2 240.6,192.2 241.4,187.8 241.8,187.5 243,187.5 244.7,188.6 
	245.8,187.6 246.6,188.6 247.9,187.3 249.2,187.2 249.8,189.2 250.3,192 251.6,192.2 252.4,190.1 254.9,180.3 255.8,178.6 
	257.1,178.5 258.6,179.7 259.8,179.4 261.1,178.5 262.2,178.8 263,180.5 263.9,180.8 263.9,180.8 265.4,181.4 268.1,185.2 
	269.8,185.9 269.8,187.9 272.1,187.6 274.6,184.8 276.5,185.8 276.5,187.5 280.6,187.5 286.4,181.1 286,180.9 286.3,178.3 
	288.4,175.7 287,175.1 287.1,174.4 287.1,174.4 295.3,166.7 295.4,166.7 295.1,160.3 297.9,158.9 299.9,157.9 301.9,156.1 
	302,153.6 303.8,152.7 308.2,147.6 307.6,146.1 308.9,145.5 310.8,143.2 309.6,142 306.5,142.7 306.5,142.4 309.5,138.9 
	309.5,138.9 309.8,138.6 311.7,138.3 311,135.2 310.5,133.5 308.7,133.8 308.5,132.5 309.1,131.3 309.2,129.6 308.8,128.6 "/>

<a href="/group/{{ data['FR-IDF'].id }}">
<polygon class="region iledefrance color-{{ data['FR-IDF'].progress_srb }}" points="207.1,79.2 205.5,78 204.5,78.5 203.3,79.5 202,79.1 199.7,80.1 197.8,79 196.9,80.1 195.9,80.2
	195.1,79.6 193.7,78.7 192.1,79.8 191.9,79.5 191.9,79.5 191.3,78.9 188.3,77.2 185.4,75.7 183.9,76.3 182.4,76.7 181.4,76 
	179.2,74.6 177.4,75.9 174.9,76.2 171.4,75.9 170.7,74.7 170,73.2 168.8,74.8 167.9,77.8 167.1,79.2 167.1,79.1 167,79.3 167,79.3 
	163.3,80.4 162.6,81.2 163.4,82.4 163.4,83.5 164.4,83.7 163.9,84.2 164,85.3 164.2,85.1 165.4,86.3 165.8,87.9 166.8,88.9 
	166.3,90.3 166.3,91.7 167.2,92.7 166.3,94.3 167.3,96.7 169.1,98.1 169.4,99.6 171,99.9 171.4,102.7 172.7,104.3 174.9,104.7 
	175.4,104.8 175.6,106.4 175.9,106.8 176.2,110.6 180.7,110.2 182.4,108.7 183.8,109.8 187.3,110 188.1,111.3 188.1,111.3 
	188.1,111.3 188.6,112 190.2,112.8 190.3,114.8 188,116.4 189.5,117.7 191.1,116.7 194.7,116.9 196.1,116.6 196.5,115.5 
	197.7,115.7 198,116.8 201.5,114.8 204.5,111.3 203.4,110.1 204.3,108.3 206.5,107.1 211.8,107.4 212.9,106.5 213.2,106.8 
	213.5,104.1 214,101.5 215,100.3 215.1,98.7 217,97.9 217,96.5 214.9,96.7 214.6,95.9 215.3,94.8 214.7,92.6 213.7,92 213.9,90.3 
	215,89.6 214.9,88.8 215.4,88.1 212.9,87.6 212.2,86 211,85.6 207.5,82.2 "/>
</a>

<polygon class="st1" points="207.1,79.2 205.5,78 204.5,78.5 203.3,79.5 202,79.1 199.7,80.1 197.8,79 196.9,80.1 195.9,80.2 
	195.1,79.6 193.7,78.7 192.1,79.8 191.9,79.5 191.9,79.5 191.3,78.9 188.3,77.2 185.4,75.7 183.9,76.3 182.4,76.7 181.4,76 
	179.2,74.6 177.4,75.9 174.9,76.2 171.4,75.9 170.7,74.7 170,73.2 168.8,74.8 167.9,77.8 167.1,79.2 167.1,79.1 167,79.3 167,79.3 
	163.3,80.4 162.6,81.2 163.4,82.4 163.4,83.5 164.4,83.7 163.9,84.2 164,85.3 164.2,85.1 165.4,86.3 165.8,87.9 166.8,88.9 
	166.3,90.3 166.3,91.7 167.2,92.7 166.3,94.3 167.3,96.7 169.1,98.1 169.4,99.6 171,99.9 171.4,102.7 172.7,104.3 174.9,104.7 
	175.4,104.8 175.6,106.4 175.9,106.8 176.2,110.6 180.7,110.2 182.4,108.7 183.8,109.8 187.3,110 188.1,111.3 188.1,111.3 
	188.1,111.3 188.6,112 190.2,112.8 190.3,114.8 188,116.4 189.5,117.7 191.1,116.7 194.7,116.9 196.1,116.6 196.5,115.5 
	197.7,115.7 198,116.8 201.5,114.8 204.5,111.3 203.4,110.1 204.3,108.3 206.5,107.1 211.8,107.4 212.9,106.5 213.2,106.8 
	213.5,104.1 214,101.5 215,100.3 215.1,98.7 217,97.9 217,96.5 214.9,96.7 214.6,95.9 215.3,94.8 214.7,92.6 213.7,92 213.9,90.3 
	215,89.6 214.9,88.8 215.4,88.1 212.9,87.6 212.2,86 211,85.6 207.5,82.2 "/>

<a href="/group/{{ data['FR-GP'].id }}">
<path class="region guadeloupe color-{{ data['FR-GP'].progress_srb }}" d="M389.5,15.8l-1.8,0.4l-1.7,1.5l0.1,3.3l1.3,0.2l0.1,2l-1.3,1l-0.2,1.6V26l-1.1,1.2l-0.1,0.2l-2.5-0.1l-0.3-1.2
	l-1.8-1l-3.2-1.7h-3.5l-1.6,2.5l0.1,3.6l0.4,1.5l0.1,0.3l0.2,2.8l1.1,5.1l1,2.7c0,0,0.7,0.7,0.9,1c0.2,0.3,1,1.5,1,1.5l1.6,0.2
	l0.5-0.9l0.1,0.1h1.6l2.5-2.1l1.6-2.1l-0.1-5l-0.9-2.6l0.3-2.2l1.7-0.3h0l0.5,0.6l1.4,0.3l1.1,0.4l0.1-0.1l0.1,0.4l2.2,0.1l3.7-0.7
	l2.1-1.5l3.7-0.1l3.1-1.1l-1.9-1.1l-0.2-1.1l-2.5-1.6l-4.7-0.1l-1.4-2.4v-2.7l-1-2.1L389.5,15.8z"/>
</a>

<a href="/group/{{ data['FR-MQ'].id }}">
<path class="region martinique color-{{ data['FR-MQ'].progress_srb }}" d="M380.6,71.6c0,0-4.3,0.1-4.8,0.3c-0.5,0.2-2.6,1.7-2.6,1.7l-0.3,0.1l-1.3,1.9L372,78l3.7,3.6l-0.6,1v2l1.6,2.2
	l5.1,4.5h5l1.3-0.1h0.2l-0.2,0.9v0.7l1.5,0.4l0.6,0.4c0,0-0.2,1.7,0.3,1.8l-1.6,0.1l-2.2-0.7l-1.5-0.3l-1.9,0.8l-1.1,1.3l-0.5,1.5
	l0.4,1.5l1.1,1.5l1.4,0.8c0,0,1.4-0.4,1.9-0.6c0.5-0.2,1-1.1,1-1.1s1.6-0.1,2.3-0.2c0.7-0.1,1.5,0.9,1.5,0.9l3.5,0.5l1.6,0.9
	l0.9-0.1v-1l0.9-0.5l0.8,0.5l-0.4,1.2l-1,0.9l0.4,1.8l1.3,0.7l1.5-0.1l1.5-1.2l0.4-1.6l1.5-1.6l-1-2l-0.6-1.8l-0.7-2.4l-0.7-1.7
	c0,0-1.8-1.8-1.8-2.2c0-0.4-1.7-1.3-1.7-1.3l-0.2-1.6c0,0,0.4-0.5,1-0.7c0.5-0.2-0.3-1.1-0.3-1.1l-1,0.2l-1.6,0.4l-0.4-0.5l-0.6-0.7
	l0.1-0.9l1.2,0.2l1-1.1l-1.4-1.1l-1.1-0.3l-0.3-0.6v-0.7l1.2-0.5l0.8,0.7l1.5,0.6l0.7-0.9v-1l0.6-0.8l-0.5-0.6l-1.2-0.5l-0.7,0.7
	l-2.9,0.3l-1,0.7l-1.3-0.4l-1.5-2.4l-3.4-3.4l-1.9-0.8L380.6,71.6z"/>
</a>

<a href="/group/{{ data['FR-GF'].id }}">
<path class="region guyane color-{{ data['FR-GF'].progress_srb }}" d="M374.7,128.6c-0.1,0-0.3,0.1-0.3,0.1l-2.9,4l-2.5,3.1l-2.9,3.2l0.4,8.4l-0.2,7.8l2.5,3.8l2.5,4.8l1.4,3
	l-1.4,1.9l-1.7,5l0.2,7l-2.1,4l-3.3,3l1,1.2l2.5,1.7l2.3,1.5l3.3-1.1l3.5-2.3l7.2-0.2l2.7,2.1l2.9,0.2l2.9,0.7l4.1-3.6l4.8-9
	l3.5-7.8l3.5-5.7l3.7-5.2l2.1-4l-1.6-3.6l-1.2-5.1l-2.7-1.1l-3.1-2.3l-2.5-2.5l-3.3-2.3l-2.3-0.8l-6.6-5l-4.3-1.7l-4.1-0.6
	c0,0-1.9-0.8-2.9-1.3C378.9,129.4,375.7,128.5,374.7,128.6z"/>
</a>

<a href="/group/{{ data['FR-RE'].id }}">
<path class="region lareunion color-{{ data['FR-RE'].progress_srb }}" d="M387,295.3l-2.8,0l-1,0.5l-1.2,0.9l-0.2,0.2H381l-1.7,0.6l-0.7,0.6l-2.3,0.3l-0.2,1.2l-0.6,2.6
	c0,0-0.9,0.6-1.2,0.7c-0.3,0.1-1.7,0.9-1.7,0.9l-0.3,2.7l0.6,1.6l1.7,2.1l0.8,0.9l0.7-0.1l-0.4,0.2l0.1,3.7l1.7,2.2l1.8,1.7l3.2,1.9
	l0.2-0.1l-0.3,0.2l3.7,2.3l2.9,1l3.1,0.5l2.5,0.9l1.6,0.3c0,0,2.4-0.5,2.7-0.5c0.3,0,2.8-0.5,2.8-0.5l2.6-0.8l1.7-1.6l-0.2-2.8
	l0.3-1.8l0.7-1l1.1-1.5l0.6-1.9l-0.2-1.9l-1.2-0.7l-1.6-0.7l-0.7-0.1l-1.2-1.7c-0.3-0.2-1.7-1.8-1.8-2c-0.1-0.2-1-2.4-1-2.4
	l-0.3-3.3L399,299l-2.1-1.2c0,0-1.7-1-2-1c-0.3,0-3.1-0.6-3.3-0.6c-0.2,0-2.3,0.1-2.3,0.2l-0.3-0.1L387,295.3z"/>
</a>

<a href="/group/{{ data['FR-YT'].id }}">
<path class="region mayotte color-{{ data['FR-YT'].progress_srb }}" d="M394.1,266.1c-0.4,0-0.6,0-0.8,0.4c-0.2,0.4-0.6,0-0.9-0.1c-0.5-0.1-0.8,0.1-1,0.5c-0.1,0.2,0,0.3-0.1,0.5
	c-0.1,0.2-0.3,0.2-0.3,0c0-0.8,0.1-1.7-0.9-1.9c-1-0.2-1.4,0.2-1.2,1.1c0,0.2,0.1,0.3,0,0.5c-0.1,0-0.3,0-0.4,0.1
	c-0.1,0.2-0.1,0.5-0.3,0.6c-0.2,0.2-0.6,0.4-0.9,0.4c-0.5,0-0.4-0.7-0.6-1c-0.2-0.3-0.7-0.4-0.9-0.2c-0.2,0.1-0.1,0.5-0.4,0.4
	c-0.2-0.3-0.1-0.8-0.2-1.2c-0.1-0.4-0.6-0.5-1-0.5c-0.4,0-0.7,1-1.1,1.3c-0.1,0.1-0.2-0.7-0.1-0.9c0.4-0.3,0.2-0.5,0.2-1
	c0-0.5,0.5-2-0.6-1.7c-0.3,0.1-0.4,0.4-0.7,0.5c-0.3,0.1-0.8,0.2-1.1,0.1c-0.3-0.1-0.2-0.5-0.6-0.4c-0.5,0.1-0.5-0.2-0.1-0.4
	c0.3-0.2,0.6-0.3,1-0.4c0.4-0.1,0.5-0.4,0.8-0.7c0.5-0.4,0.6-1.4,0.4-2c-0.1-0.3-0.2-0.6-0.5-0.7c-0.2,0-1.1,0.8-1.1,0.1
	c0-0.5-0.1-0.4-0.5-0.7c-0.3-0.2-0.4-0.7-0.5-1c-0.1-0.3-0.1-0.8-0.3-1c-0.2-0.2-0.7-0.2-0.6-0.5c0.5-0.1,1-0.1,1.5-0.1
	c0.2,0,0.4,0.1,0.6,0.1c0.2,0,0.4-0.1,0.6-0.1c0.2,0,0.7,0.3,0.7,0.5c0.1,0.2,0,0.4,0,0.6c0,0.3,0.1,0.6,0.1,0.9
	c0,0.4,0.3,0.6,0.6,0.9c0.3,0.4,0.7,0.3,1,0.5c0.4,0.2,0.7,0.3,1.1,0.5c0.5,0.1,0.8,0.5,1.3,0.6c0.3,0,0.8-0.1,1-0.3
	c0.2-0.2,0.7-0.6,0.6-0.9c0-0.2,0-0.4,0-0.6c0.1-0.1,0.2,0,0.2-0.2c-0.1-0.5-0.5-0.7-0.7-1.1c0-0.1,0-0.3-0.1-0.4
	c-0.2-0.1-0.3-0.1-0.4-0.3c-0.1-0.5,0-0.5-0.4-0.8c-0.3-0.2-0.2-0.6-0.4-0.9c-0.1-0.1-0.3-0.1-0.4-0.2c-0.2-0.2-0.4-0.4-0.6-0.6
	c-0.6-0.5-1.5-0.8-1.7-1.7c-0.1-0.3-0.1-0.7-0.5-0.7c-0.4,0-0.9-0.3-1.1-0.6c-0.1-0.2-0.6-0.4-0.4-0.7c0.1-0.1,0.3-0.1,0.4-0.2
	c0.2-0.1,0.2-0.2,0.2-0.4c0.3-0.7,1.9-0.4,1.9-0.7c0-0.3-0.3-0.4-0.5-0.4c-0.3-0.1-0.6-0.3-1-0.3c-0.4,0-0.2-0.5-0.1-0.7
	c0.3-0.4,0.3-0.9,0.3-1.4c0-0.7-1-1.2-0.6-2c0.2-0.4,0.7-0.1,0.9-0.4c0.4-0.6-0.7-0.3-0.9-0.4c-0.4,0-0.5-0.5-0.5-0.8
	c0-0.3,0.3-0.5,0.5-0.8c0.1-0.2,0.4-0.8,0.3-1c-0.2-0.4-0.3-0.6-0.7-0.3c-0.7,0.6-1.2-0.7-1.9-0.4c-0.4,0.2-0.7,0.1-0.9-0.3
	c-0.1-0.2-0.3-0.2-0.4-0.3c-0.1-0.1-0.3-0.3-0.4-0.4c-0.2-0.2-0.5-0.5-0.8-0.5c-0.3,0-0.7,0.4-1,0.3c-0.2-0.1-0.2-0.3-0.3-0.4
	c-0.2-0.1-0.3-0.2-0.5-0.2c-0.5-0.2,0.2-0.8,0.3-0.9c0.4-0.5,1-0.9,1.2-1.5c0.4-0.9-1.3-0.5-1.7-0.7c-0.3-0.2,0.8-1.1,0.9-1.4
	c0.1-0.3-0.1-0.7,0.1-1c0.2-0.4,0.4-0.2,0.7-0.1c0.3,0.1,0.8,0.1,1-0.3c0.1-0.2,0.4-0.7,0.6-0.8c0.2-0.2,0.5-0.5,0.3-0.8
	c-0.4-0.4-0.2-0.3,0.3-0.4c0.2,0,0.8,0,0.8-0.3c0-0.3,0-0.9,0.2-1.1c0.3-0.2,0.4-0.4,0.7-0.6c0.1-0.1,0.3-0.2,0.4-0.3
	c0.1-0.2-0.1-0.5,0.2-0.5c0.4,0,0.4,0.1,0.7-0.2c0.1-0.1,0.7-0.8,0.7-0.3c0,0.3-0.7,0.5-0.3,0.7c0.4,0.3-0.1,0.3-0.3,0.4
	c-0.6,0.1-2,0.7-0.9,1.3c0.3,0.2,0.7,0.3,1.1,0.3c0.6,0.1-0.4,0.5,0.2,0.6c0.2,0,0.3,0,0.4,0.2c0.1,0.1,0.1,0.3,0.2,0.3
	c0.3,0.2,0.2,0.5,0.4,0.8c0.2,0.3,0.6,0.5,0.9,0.7c0.2,0.1,0.4,0.2,0.7,0.2c0.2,0,0.5-0.1,0.6,0.2c0.1,0.2-1.1,0.6-0.7,1.2
	c0.2,0.3,0.6,0.5,0.8,0.9c0.1,0.3-0.1,1,0.4,0.9c0.2,0,0.4-0.1,0.6,0c0.1,0.1,0.1,0.2,0.3,0.2c0.4,0,0.4-0.3,0.8,0.1
	c0.8,0.9,1.3-0.5,1.9-0.7c0.4-0.2,0.5-0.1,0.7,0.2c0.2,0.2,0.4,0.6,0.7,0.5c0.4-0.2,0.7,0.1,1.1,0c0.4-0.1,0.6,0,0.9,0.2
	c0.3,0.2,0.7-0.1,1,0.1c0.1,0.1,0.3,0.1,0.4,0.2c0.1,0.1,0,0.2,0.2,0.2c0.2,0,0.3-0.3,0.4,0.1c0,0.1,0.1,0.2,0,0.3
	c-0.1,0.2,0.2,0.4,0.3,0.5c0.2,0.3,0.7,0.3,1,0.3c0.3,0,0.6,0.4,0.7,0.7c0.1,0.2,0.3,0.2,0.4,0.3c0.2,0.2,0.4,0.5,0.5,0.8
	c0.2,0.7-1.2,1.4-0.7,2.2c0.2,0.3,0.5,0.4,0.5,0.8c0.1,0.6-0.5,0.1-0.8,0.2c-0.5,0.3-1.5,0.7-1.6,1.3c-0.1,0.7-0.4,0.6-0.8,1
	c-0.2,0.2-0.8,0.5-0.8,0.9c0,0.5,0,0.6-0.4,0.9c-0.4,0.2-0.6,0.2-0.8,0.6c-0.1,0.2,0.1,0.2,0.2,0.3c0.2,0.2,0,0.2-0.1,0.4
	c-0.1,0.4-0.3,0.8,0,1.1c0.1,0.2,0.1,0.3,0.2,0.5c0,0.1-0.1,0.3,0,0.4c0.1,0.1,0.2,0.3,0.3,0.4c0.1,0.1,0.4,0.1,0.5,0.2
	c0.2,0.4,0,0.6,0.6,0.7c0.2,0,0.9,0.3,0.4,0.4c-0.1,0.4,0.2,0.9,0.6,0.9c0.1,0,0.3-0.1,0.4,0c0.2,0.1-0.2,0.3-0.2,0.4
	c-0.2,0.4,0,0.9-0.4,1.3c-0.3,0.3-0.8,0.5-1.2,0.7c-0.3,0.2-0.7,0.5-0.9,0.8c-0.2,0.3,0,1.2,0.1,1.6c0,0.2,0.7,1-0.1,0.6
	c-0.7-0.3-1,0-1.3,0.5c-0.2,0.3-0.6,0.3-0.9,0.5c-0.3,0.2-0.1,0.9,0,1.2c0.3,0.5,0.1,0.6-0.5,0.6c-0.5,0-0.7,0.8-0.5,1.2
	c0.2,0.5,0.7,0.6,0.7,1.1c0,0.5,0.5,0.7,0.9,0.9c0.3,0.1,0.5,0.2,0.7,0.4c0.2,0.1,0.3,0.3,0.5,0.3c0.2,0,0.5-0.1,0.7,0.1
	C394.4,265.6,394.1,265.7,394.1,266.1"/>
</a>

<text transform="matrix(1 0 0 1 99.1441 85.1764)"><tspan x="0" y="0" class="st4 st5 st6">No</tspan><tspan x="11.6" y="0" class="st4 st5 st6">r</tspan><tspan x="14.8" y="0" class="st4 st5 st6">ma</tspan><tspan x="28" y="0" class="st4 st5 st6">n</tspan><tspan x="33.5" y="0" class="st4 st5 st6">die</tspan></text>
<text transform="matrix(1 0 0 1 34.3305 113.7384)"><tspan x="0" y="0" class="st4 st5 st6">B</tspan><tspan x="6.1" y="0" class="st4 st5 st6">r</tspan><tspan x="9.2" y="0" class="st4 st5 st6">et</tspan><tspan x="17.5" y="0" class="st4 st5 st6">a</tspan><tspan x="22.3" y="0" class="st4 st5 st6">g</tspan><tspan x="27.8" y="0" class="st4 st5 st6">n</tspan><tspan x="33.3" y="0" class="st4 st5 st6">e</tspan></text>
<text transform="matrix(1 0 0 1 176.4081 48.1924)"><tspan x="0" y="0" class="st4 st5 st6">Hauts</tspan><tspan x="24" y="0" class="st4 st5 st6">-</tspan><tspan x="27.2" y="0" class="st4 st5 st6">d</tspan><tspan x="32.6" y="0" class="st4 st5 st6">e</tspan><tspan x="37.6" y="0" class="st4 st5 st6">-</tspan></text>
<text transform="matrix(1 0 0 1 176.4081 56.1924)"><tspan x="0" y="0" class="st4 st5 st6">F</tspan><tspan x="5" y="0" class="st4 st5 st6">r</tspan><tspan x="8.2" y="0" class="st4 st5 st6">a</tspan><tspan x="13" y="0" class="st4 st5 st6">n</tspan><tspan x="18.5" y="0" class="st4 st5 st6">c</tspan><tspan x="23" y="0" class="st4 st5 st6">e</tspan></text>
<text transform="matrix(1 0 0 1 176.4081 93.6424)"><tspan x="0" y="0" class="st4 st5 st6">Il</tspan><tspan x="4.7" y="0" class="st4 st5 st6">e-</tspan><tspan x="12.8" y="0" class="st4 st5 st6">d</tspan><tspan x="18.3" y="0" class="st4 st5 st6">e</tspan><tspan x="23.2" y="0" class="st4 st5 st6">-</tspan></text>
<text transform="matrix(1 0 0 1 176.4081 101.6424)"><tspan x="0" y="0" class="st4 st5 st6">F</tspan><tspan x="5" y="0" class="st4 st5 st6">r</tspan><tspan x="8.2" y="0" class="st4 st5 st6">a</tspan><tspan x="13" y="0" class="st4 st5 st6">n</tspan><tspan x="18.5" y="0" class="st4 st5 st6">c</tspan><tspan x="23" y="0" class="st4 st5 st6">e</tspan></text>
<text transform="matrix(1 0 0 1 246.7151 96.1624)"><tspan x="0" y="0" class="st4 st5 st6">G</tspan><tspan x="6.2" y="0" class="st4 st5 st6">r</tspan><tspan x="9.4" y="0" class="st4 st5 st6">a</tspan><tspan x="14.2" y="0" class="st4 st5 st6">n</tspan><tspan x="19.7" y="0" class="st4 st5 st6">d-</tspan><tspan x="28.2" y="0" class="st4 st5 st6">E</tspan><tspan x="33.5" y="0" class="st4 st5 st6">st</tspan></text>
<text transform="matrix(1 0 0 1 216.7921 150.6474)"><tspan x="0" y="0" class="st4 st5 st6">Bou</tspan><tspan x="16.6" y="0" class="st4 st5 st6">r</tspan><tspan x="19.7" y="0" class="st4 st5 st6">gog</tspan><tspan x="35.9" y="0" class="st4 st5 st6">n</tspan><tspan x="41.3" y="0" class="st4 st5 st6">e</tspan><tspan x="46.3" y="0" class="st4 st5 st6">-</tspan></text>
<text transform="matrix(1 0 0 1 216.7921 158.6474)"><tspan x="0" y="0" class="st4 st5 st6">F</tspan><tspan x="5" y="0" class="st4 st5 st6">r</tspan><tspan x="8.2" y="0" class="st4 st5 st6">a</tspan><tspan x="13" y="0" class="st4 st5 st6">n</tspan><tspan x="18.5" y="0" class="st4 st5 st6">c</tspan><tspan x="23" y="0" class="st4 st5 st6">h</tspan><tspan x="28.5" y="0" class="st4 st5 st6">e</tspan><tspan x="33.4" y="0" class="st4 st5 st6">-</tspan><tspan x="36.6" y="0" class="st4 st5 st6">C</tspan><tspan x="42.2" y="0" class="st4 st5 st6">om</tspan><tspan x="55.7" y="0" class="st4 st5 st6">t</tspan><tspan x="58.9" y="0" class="st4 st5 st6"></tspan></text>
<text transform="matrix(1 0 0 1 143.7381 142.6894)"><tspan x="0" y="0" class="st4 st5 st6">C</tspan><tspan x="5.6" y="0" class="st4 st5 st6">ent</tspan><tspan x="19.3" y="0" class="st4 st5 st6">r</tspan><tspan x="22.5" y="0" class="st4 st5 st6">e</tspan><tspan x="27.4" y="0" class="st4 st5 st6">-</tspan></text>
<text transform="matrix(1 0 0 1 143.7381 150.6894)"><tspan x="0" y="0" class="st4 st5 st6">V</tspan><tspan x="5.3" y="0" class="st4 st5 st6">a</tspan><tspan x="10" y="0" class="st4 st5 st6 st7">l</tspan><tspan x="14.4" y="0" class="st4 st5 st6">d</tspan><tspan x="19.9" y="0" class="st4 st5 st6 st7">e</tspan><tspan x="26.9" y="0" class="st4 st5 st6">L</tspan><tspan x="31.6" y="0" class="st4 st5 st6">oi</tspan><tspan x="38.9" y="0" class="st4 st5 st6">r</tspan><tspan x="42.1" y="0" class="st4 st5 st6">e</tspan></text>
<text transform="matrix(1 0 0 1 81.713 140.4924)"><tspan x="0" y="0" class="st4 st5 st6">P</tspan><tspan x="5.7" y="0" class="st4 st5 st6">a</tspan><tspan x="10.4" y="0" class="st4 st5 st6">y</tspan><tspan x="14.8" y="0" class="st4 st5 st6 st7">s</tspan><tspan x="21" y="0" class="st4 st5 st6">de</tspan></text>
<text transform="matrix(1 0 0 1 81.713 148.4924)"><tspan x="0" y="0" class="st4 st5 st6">l</tspan><tspan x="2.2" y="0" class="st4 st5 st6 st7">a</tspan><tspan x="9.2" y="0" class="st4 st5 st6">L</tspan><tspan x="13.9" y="0" class="st4 st5 st6">oi</tspan><tspan x="21.2" y="0" class="st4 st5 st6">r</tspan><tspan x="24.4" y="0" class="st4 st5 st6">e</tspan></text>
<text transform="matrix(1 0 0 1 119.1821 215.7424)"><tspan x="0" y="0" class="st4 st5 st6">Nou</tspan><tspan x="17" y="0" class="st4 st5 st6">v</tspan><tspan x="21.4" y="0" class="st4 st5 st6">ell</tspan><tspan x="30.7" y="0" class="st4 st5 st6">e</tspan><tspan x="35.7" y="0" class="st4 st5 st6">-</tspan></text>
<text transform="matrix(1 0 0 1 119.1821 223.7424)"><tspan x="0" y="0" class="st4 st5 st6">A</tspan><tspan x="5.8" y="0" class="st4 st5 st6">quitai</tspan><tspan x="29.2" y="0" class="st4 st5 st6">n</tspan><tspan x="34.7" y="0" class="st4 st5 st6">e</tspan></text>
<text transform="matrix(1 0 0 1 216.7921 215.7424)"><tspan x="0" y="0" class="st4 st5 st6">A</tspan><tspan x="5.8" y="0" class="st4 st5 st6">u</tspan><tspan x="11.2" y="0" class="st4 st5 st6">v</tspan><tspan x="15.6" y="0" class="st4 st5 st6">e</tspan><tspan x="20.5" y="0" class="st4 st5 st6">r</tspan><tspan x="23.6" y="0" class="st4 st5 st6">g</tspan><tspan x="29.2" y="0" class="st4 st5 st6">n</tspan><tspan x="34.6" y="0" class="st4 st5 st6">e</tspan><tspan x="39.6" y="0" class="st4 st5 st6">-</tspan></text>
<text transform="matrix(1 0 0 1 216.7921 223.7424)"><tspan x="0" y="0" class="st4 st5 st6">R</tspan><tspan x="5.8" y="0" class="st4 st5 st6">h</tspan><tspan x="11.3" y="0" class="st4 st5 st6"></tspan><tspan x="16.4" y="0" class="st4 st5 st6">n</tspan><tspan x="21.8" y="0" class="st4 st5 st6">e</tspan><tspan x="26.8" y="0" class="st4 st5 st6">-</tspan><tspan x="29.7" y="0" class="st4 st5 st6">Alpes</tspan></text>
<text transform="matrix(1 0 0 1 163.3671 289.4134)"><tspan x="0" y="0" class="st4 st5 st6">O</tspan><tspan x="6.7" y="0" class="st4 st5 st6">c</tspan><tspan x="11.2" y="0" class="st4 st5 st6">citanie</tspan></text>
<text transform="matrix(1 0 0 1 277.5321 285.4204)"><tspan x="0" y="0" class="st4 st5 st6">P</tspan><tspan x="5.4" y="0" class="st4 st5 st6">A</tspan><tspan x="11.2" y="0" class="st4 st5 st6">C</tspan><tspan x="16.9" y="0" class="st4 st5 st6">A</tspan></text>
<text transform="matrix(1 0 0 1 310.6331 354.6604)"><tspan x="0" y="0" class="st4 st5 st6">C</tspan><tspan x="5.6" y="0" class="st4 st5 st6">o</tspan><tspan x="10.7" y="0" class="st4 st5 st6">r</tspan><tspan x="14" y="0" class="st4 st5 st6">se</tspan></text>
<text transform="matrix(1 0 0 1 357.9951 56.9804)"><tspan x="0" y="0" class="st4 st5 st6">Gu</tspan><tspan x="11.6" y="0" class="st4 st5 st6">a</tspan><tspan x="16.4" y="0" class="st4 st5 st6">deloupe</tspan></text>
<text transform="matrix(1 0 0 1 361.0161 117.9574)"><tspan x="0" y="0" class="st4 st5 st6">Ma</tspan><tspan x="12.4" y="0" class="st4 st5 st6">r</tspan><tspan x="15.8" y="0" class="st4 st5 st6">tinique</tspan></text>
<text transform="matrix(1 0 0 1 370.7181 208.0364)"><tspan x="0" y="0" class="st4 st5 st6">Gu</tspan><tspan x="11.6" y="0" class="st4 st5 st6">y</tspan><tspan x="15.9" y="0" class="st4 st5 st6">a</tspan><tspan x="20.7" y="0" class="st4 st5 st6">n</tspan><tspan x="26.2" y="0" class="st4 st5 st6">e</tspan></text>
<text transform="matrix(1 0 0 1 370.7181 282.8924)"><tspan x="0" y="0" class="st4 st5 st6">M</tspan><tspan x="7.6" y="0" class="st4 st5 st6">a</tspan><tspan x="12.4" y="0" class="st4 st5 st6">y</tspan><tspan x="16.7" y="0" class="st4 st5 st6">o</tspan><tspan x="21.8" y="0" class="st4 st5 st6">t</tspan><tspan x="25" y="0" class="st4 st5 st6">t</tspan><tspan x="28.2" y="0" class="st4 st5 st6">e</tspan></text>
<text transform="matrix(1 0 0 1 370.7181 338.9292)"><tspan x="0" y="0" class="st4 st5 st6">L</tspan><tspan x="4.8" y="0" class="st4 st5 st6 st7">a</tspan><tspan x="11.7" y="0" class="st4 st5 st6">Runion</tspan></text>
</svg>
